<svg width="538" height="558" viewBox="0 0 538 558" fill="none" xmlns="http://www.w3.org/2000/svg">
<path fill-rule="evenodd" clip-rule="evenodd" d="M95.6111 185.263C-68.1511 301.202 79.5876 395.235 179.238 458.66C189.118 464.949 198.526 470.937 207.111 476.616C327.019 555.933 506.578 401.329 487.611 316.197C478.206 273.983 459.456 243.266 434.009 201.578C423.742 184.758 412.385 166.152 400.111 144.284C328.503 16.6998 285.777 47.6873 150.515 145.788C133.718 157.97 115.494 171.187 95.6111 185.263ZM104.5 221.888C60.9998 245.376 47.4998 274.361 53.9998 308.344C51.4998 294.185 54.0998 257.67 104.5 228.884C133.2 212.493 169.001 190.508 185.057 159.919C171.079 174.289 137.463 204.089 104.5 221.888ZM84.4998 265.366C78.8331 269.412 67.9998 281.373 69.9998 296.85C71.1293 291.186 75.6107 276.96 84.4998 265.366Z" fill="#EAFFFC"/>
<path fill-rule="evenodd" clip-rule="evenodd" d="M322.396 44.657C322.382 44.784 322.473 44.8983 322.6 44.9124L324.613 45.1359C324.739 45.15 324.854 45.0585 324.868 44.9315C324.882 44.8045 324.791 44.6901 324.664 44.676L322.651 44.4526C322.524 44.4385 322.41 44.53 322.396 44.657Z" fill="#29353B"/>
<path d="M325.644 27.8265C325.644 27.8265 340.513 62.6654 322.067 69.8118L316.813 71.3751C316.813 71.3751 310.105 72.8267 320.502 109.117C320.502 109.117 291.101 98.6208 291.101 90.1344C291.101 81.648 293.337 9.40215 325.644 27.8265Z" fill="#F1A690"/>
<path d="M318.154 70.7044C318.154 70.7044 308.54 69.6994 306.193 59.873C306.193 59.873 305.187 79.9724 315.471 85.1089C315.36 85.1089 312.9 74.3892 318.154 70.7044Z" fill="#29353B"/>
<path d="M230.734 114.918L261.588 118.045L280.592 79.4096L277.798 118.938L291.436 120.167C291.436 120.167 296.578 55.1788 306.863 49.2607C306.863 49.2607 298.591 46.8041 300.603 40.8859C302.615 34.9678 308.205 38.876 308.652 41.5559C308.652 41.5559 313.235 38.4294 314.129 34.4095C315.024 30.3896 318.378 28.3797 321.172 28.0447C324.191 27.7097 329.221 25.8114 318.825 19.8933C308.428 13.9752 294.231 16.0968 287.523 37.6477C280.816 59.1987 232.634 70.5883 230.734 114.918Z" fill="#D1765A"/>
<path d="M359.293 149.757L440.453 188.169L343.084 172.424L346.885 157.685L359.293 149.757Z" fill="#E8907C"/>
<path d="M341.295 174.769C341.295 174.769 347.779 128.541 341.295 112.35C341.295 112.35 346.884 122.064 364.883 152.66L341.295 174.769Z" fill="#6C7B39"/>
<path d="M364.883 152.551L347.22 174.102L348.226 160.925L364.883 152.551Z" fill="#29353B"/>
<path fill-rule="evenodd" clip-rule="evenodd" d="M321.332 41.6042C322.074 42.663 322.528 44.1288 322.503 45.7505C322.479 47.3722 321.982 48.8238 321.208 49.8599C320.435 50.8964 319.399 51.5033 318.288 51.4867C317.177 51.47 316.16 50.8323 315.418 49.7732C314.677 48.7143 314.223 47.2485 314.247 45.6268C314.272 44.0051 314.769 42.5536 315.542 41.5174C316.316 40.481 317.351 39.874 318.462 39.8907C319.573 39.9073 320.591 40.545 321.332 41.6042ZM321.711 41.339C320.908 40.1923 319.766 39.4477 318.469 39.4283C317.173 39.4089 316.009 40.1189 315.171 41.241C314.334 42.3633 313.81 43.9118 313.785 45.6199C313.759 47.328 314.236 48.8915 315.039 50.0384C315.842 51.185 316.985 51.9296 318.281 51.9491C319.578 51.9685 320.742 51.2584 321.579 50.1364C322.417 49.014 322.94 47.4656 322.966 45.7575C322.992 44.0493 322.515 42.4859 321.711 41.339Z" fill="#29353B"/>
<path fill-rule="evenodd" clip-rule="evenodd" d="M330.86 40.7986C331.448 41.8577 331.807 43.3295 331.782 44.9615C331.758 46.5934 331.355 48.0538 330.736 49.0948C330.113 50.1422 329.3 50.7236 328.461 50.711C327.623 50.6985 326.828 50.093 326.236 49.0274C325.649 47.9683 325.29 46.4965 325.315 44.8646C325.339 43.2326 325.742 41.7722 326.361 40.7312C326.984 39.6839 327.797 39.1024 328.635 39.115C329.474 39.1276 330.269 39.7331 330.86 40.7986ZM331.265 40.5743C330.635 39.4389 329.717 38.6687 328.642 38.6526C327.567 38.6365 326.627 39.3788 325.963 40.4949C325.296 41.6171 324.877 43.1597 324.852 44.8576C324.826 46.5555 325.198 48.11 325.832 49.2517C326.462 50.3872 327.379 51.1573 328.454 51.1734C329.529 51.1895 330.47 50.4472 331.133 49.3312C331.801 48.2089 332.219 46.6663 332.245 44.9684C332.27 43.2705 331.899 41.7161 331.265 40.5743Z" fill="#29353B"/>
<path fill-rule="evenodd" clip-rule="evenodd" d="M303.362 33.3393C303.263 33.4201 303.249 33.5657 303.33 33.6646L313.279 45.8359C313.36 45.9348 313.506 45.9494 313.604 45.8686C313.703 45.7878 313.718 45.6422 313.637 45.5433L303.688 33.372C303.607 33.2732 303.461 33.2585 303.362 33.3393Z" fill="#29353B"/>
<path fill-rule="evenodd" clip-rule="evenodd" d="M325.092 46.5858C325.092 46.4581 324.988 46.3545 324.86 46.3545H323.072C322.944 46.3545 322.84 46.4581 322.84 46.5858C322.84 46.7136 322.944 46.8171 323.072 46.8171H324.86C324.988 46.8171 325.092 46.7136 325.092 46.5858Z" fill="#29353B"/>
<path d="M98.7097 558.001C84.139 558.001 72.3271 546.202 72.3271 531.648C72.3271 517.094 84.139 505.296 98.7097 505.296C113.28 505.296 125.092 517.094 125.092 531.648C125.092 546.202 113.28 558.001 98.7097 558.001Z" fill="#29353B"/>
<path d="M99.492 542.028C94.1823 542.028 89.878 537.729 89.878 532.425C89.878 527.122 94.1823 522.822 99.492 522.822C104.802 522.822 109.106 527.122 109.106 532.425C109.106 537.729 104.802 542.028 99.492 542.028Z" fill="#7FB2F5"/>
<path d="M485.617 558.001C471.046 558.001 459.235 546.202 459.235 531.648C459.235 517.094 471.046 505.296 485.617 505.296C500.188 505.296 512 517.094 512 531.648C512 546.202 500.188 558.001 485.617 558.001Z" fill="#29353B"/>
<path d="M486.4 542.028C481.09 542.028 476.786 537.729 476.786 532.425C476.786 527.122 481.09 522.822 486.4 522.822C491.71 522.822 496.014 527.122 496.014 532.425C496.014 537.729 491.71 542.028 486.4 542.028Z" fill="#7FB2F5"/>
<path d="M451.186 203.359L486.4 465.321H489.642L496.014 516.462H470.414L467.283 468.559H470.414L435.2 206.598L451.186 203.359Z" fill="#29353B"/>
<path d="M441.683 209.723C434.645 209.723 428.939 204.024 428.939 196.993C428.939 189.963 434.645 184.264 441.683 184.264C448.722 184.264 454.427 189.963 454.427 196.993C454.427 204.024 448.722 209.723 441.683 209.723Z" fill="#29353B"/>
<path d="M445.025 184.706C450.442 186.172 454.428 191.118 454.428 196.993C454.428 201.289 452.297 205.088 449.034 207.394L528 222.887C528 222.887 542.097 221.342 535.5 214.391C517.907 195.856 459.629 186.734 445.025 184.706C443.96 184.417 442.84 184.264 441.683 184.264C441.683 184.264 442.886 184.409 445.025 184.706Z" fill="url(#paint0_linear_1_2442)"/>
<path d="M134.594 532.427C134.594 532.427 137.836 494.127 96.25 497.253V487.65C96.25 487.65 147.45 484.412 140.966 532.316H134.594V532.427Z" fill="#29353B"/>
<path d="M144.768 545.155H434.305C436.541 545.155 438.442 543.369 438.442 541.024V529.188H141.078V541.359C141.078 543.48 142.755 545.155 144.768 545.155Z" fill="#29353B"/>
<path d="M125.092 529.188H438.442V535.552H125.092V529.188Z" fill="#7FB2F5"/>
<path d="M470.414 497.252L438.441 533.431L428.827 529.188L470.414 484.522V497.252Z" fill="#29353B"/>
<path d="M448.95 214.969L479.804 462.972L486.623 466.434L452.415 204.808L448.95 214.969Z" fill="#7FB2F5"/>
<path opacity="0.38" d="M451.745 238.979L448.95 237.304L474.662 445.89L477.457 446.448L451.745 238.979Z" fill="#F4D8BE"/>
<path d="M428.044 290.117L440.118 262.424L432.069 255.501L416.865 296.035L423.908 298.156L428.044 290.117Z" fill="#F4D8BE"/>
<path d="M450.626 196.32C450.626 196.32 406.804 244.893 411.946 283.082L435.087 300.725C435.087 300.725 444.925 342.486 417.648 355.886C390.371 369.286 353.368 341.035 362.088 313.454C370.807 285.873 401.103 251.481 401.103 251.481C401.103 251.481 428.939 201.121 440.229 192.635L450.626 196.32Z" fill="#3581F5"/>
<path d="M448.949 196.32C448.949 196.32 405.574 233.839 407.363 284.311C407.363 284.311 406.692 246.457 450.626 198.107L448.949 196.32Z" fill="#3579DB"/>
<path d="M418.206 275.821L419.66 237.409L402.444 234.617L409.04 282.186L417.759 287.992L418.206 275.821Z" fill="#F4D8BE"/>
<path d="M402.332 235.066C402.108 236.741 405.686 238.751 410.493 239.533C415.3 240.315 419.324 239.533 419.659 237.858C419.995 236.183 416.306 234.173 411.499 233.391C406.692 232.61 402.667 233.391 402.332 235.066Z" fill="#F4E9DE"/>
<g opacity="0.53">
<path opacity="0.53" d="M404.121 235.394C405.574 236.399 407.027 237.181 408.704 237.962C410.269 238.632 411.946 239.302 413.735 239.302C414.629 239.302 415.635 239.079 416.306 238.409C416.641 238.074 416.865 237.627 417.088 237.181C417.312 236.734 417.2 236.064 416.865 235.729C416.194 234.947 415.3 234.724 414.517 234.389C413.623 234.054 412.84 233.942 411.946 233.831C411.052 233.719 410.157 233.607 409.263 233.607C408.369 233.607 407.474 233.607 406.58 234.054C406.356 234.166 406.133 234.277 406.021 234.724C406.021 235.059 406.133 235.282 406.356 235.506C406.692 235.841 407.027 236.176 407.474 236.399C408.257 236.846 409.151 237.181 409.934 237.292C410.828 237.404 411.722 237.516 412.617 237.404C413.064 237.292 413.511 237.292 413.958 237.069C414.07 236.957 414.182 236.846 414.182 236.734C414.182 236.511 414.07 236.399 414.07 236.287C413.958 236.064 413.735 235.952 413.511 235.841C412.728 235.394 411.834 235.282 410.94 235.282C410.045 235.282 409.151 235.506 408.369 235.729C410.045 235.282 411.946 235.171 413.399 236.064C413.735 236.287 414.07 236.622 413.846 236.846C413.511 237.069 413.064 237.069 412.728 237.181C411.834 237.181 411.052 237.181 410.157 236.957C409.375 236.734 408.48 236.511 407.81 236.064C407.139 235.617 406.245 234.947 407.027 234.612C407.698 234.277 408.592 234.277 409.487 234.277C410.381 234.277 411.163 234.389 412.058 234.501C412.952 234.612 413.735 234.836 414.517 235.059C415.3 235.282 416.082 235.617 416.641 236.176C416.865 236.511 416.976 236.846 416.865 237.181C416.753 237.516 416.529 237.962 416.194 238.186C415.635 238.744 414.852 238.967 413.958 238.967C412.281 238.967 410.604 238.409 409.039 237.739C407.251 237.069 405.686 236.287 404.121 235.394Z" fill="#29353B"/>
</g>
<path d="M415.3 240.32L415.076 286.102L417.536 287.665L419.66 237.417L415.3 240.32Z" fill="#29353B"/>
<path d="M437.546 260.192L424.355 294.138L425.696 295.59L440.341 262.314L437.546 260.192Z" fill="#29353B"/>
<path d="M435.981 306.53L409.039 282.188L435.534 297.15L435.981 306.53Z" fill="#29353B"/>
<path d="M411.834 357.783C411.834 357.783 361.976 324.284 376.061 285.426C376.061 285.426 362.982 304.408 360.858 318.143C358.845 331.878 374.943 365.376 411.834 357.783Z" fill="#3579DB"/>
<path d="M145.885 439.073C145.885 439.073 62.0423 440.748 39.6841 387.82C39.7959 387.708 84.2886 382.572 145.885 439.073Z" fill="#29353B"/>
<path d="M366.783 459.511C366.783 459.511 335.929 509.089 259.017 480.168C259.017 480.168 287.747 449.684 366.783 459.511Z" fill="#29353B"/>
<path d="M333.357 445.887C333.357 445.887 332.799 483.182 332.687 499.932L366.559 498.145L365.441 444.547L333.357 445.887Z" fill="#F1A690"/>
<path d="M332.798 496.692L366 496.469L427.597 531.419L352.25 533.206L345.99 513.33L336.376 532.648L328.103 532.871L332.798 496.692Z" fill="#F4CA3B"/>
<path d="M360.858 527.286L417.647 525.499L427.597 531.417L365.329 532.98L360.858 527.286Z" fill="#E3B20D"/>
<path d="M332.016 532.875L345.99 512.999L336.599 532.875H332.016Z" fill="#E3B20D"/>
<path d="M366.112 532.87L350.014 511.766L345.655 513.217L352.138 533.54L366.112 532.87Z" fill="#29353B"/>
<path opacity="0.65" d="M333.134 461.519L365.441 478.715V444.658L333.357 445.663L333.134 461.519Z" fill="#D1765A"/>
<path d="M71.2092 364.713C71.2092 364.713 41.6964 387.604 28.6169 397.988L51.0869 423.336L92.2258 388.944L71.2092 364.713Z" fill="#F1A690"/>
<path d="M31.1892 395.976L52.2059 421.77L63.2732 491.671L14.8678 434.053L26.494 416.745L5.36557 421.323L-0.000377655 414.958L31.1892 395.976Z" fill="#F4CA3B"/>
<path d="M24.8163 437.068L61.8189 480.17L63.384 491.672L23.2512 443.991L24.8163 437.068Z" fill="#E3B20D"/>
<path d="M2.45795 418.083L26.7166 416.52L5.36449 421.656L2.45795 418.083Z" fill="#E3B20D"/>
<path d="M23.8098 444.657L30.2937 418.863L26.381 416.295L14.5312 434.161L23.8098 444.657Z" fill="#29353B"/>
<path opacity="0.65" d="M58.9122 374.311L65.7314 410.266L92.3376 388.939L71.4327 364.484L58.9122 374.311Z" fill="#D1765A"/>
<path d="M321.955 95.1541C319.831 92.8092 316.701 91.5809 313.571 91.6925L297.473 92.3625L274.556 93.2558L284.17 183.703L351.021 183.144C351.021 183.144 340.624 115.142 321.955 95.1541Z" fill="#F4D8BE"/>
<path d="M299.597 91.4707C299.597 91.4707 309.323 120.168 316.254 130.776L284.952 93.034L299.597 91.4707Z" fill="#6C7B39"/>
<path d="M366.99 459.036C366.99 459.036 344.743 212.819 330.993 182L284.265 183.228L259 479.582L366.99 459.036Z" fill="#7FB2F5"/>
<path d="M245.155 185.936L176.739 279.957L39.7954 387.711L145.885 439.076L322.961 182.363L245.155 185.936Z" fill="#7FB2F5"/>
<path d="M278.915 245.789L296.802 219.213L271.761 326.074L278.915 245.789Z" fill="#29353B"/>
<path d="M316.254 91.4707C316.254 91.4707 332.24 114.362 334.029 123.741C335.817 133.121 331.234 144.957 326.091 156.682C320.837 168.518 316.366 183.034 319.16 192.749C321.955 202.464 330.228 198.332 331.681 212.178C331.681 212.29 330.228 220.33 330.34 220.553C331.681 234.511 345.096 237.079 359.07 236.409L373.379 235.739C373.379 235.739 349.791 205.144 348.338 171.868C346.885 138.592 351.468 137.476 345.543 120.503C339.618 103.53 316.254 91.4707 316.254 91.4707Z" fill="#A4B640"/>
<path d="M299.597 181.693C299.597 181.693 320.39 173.319 317.707 133.12C317.595 133.12 295.349 155.341 299.597 181.693Z" fill="#29353B"/>
<path d="M418.878 183.371C418.878 183.371 436.876 181.808 440.453 185.381C444.589 189.513 431.51 188.619 431.51 188.619C431.51 188.619 459.793 198.446 457.334 201.014C442.018 216.758 430.057 202.465 419.548 200.679L343.419 192.639C333.693 191.634 324.303 187.391 317.372 180.914L284.17 141.386L310.552 124.748L336.711 161.373C337.941 162.937 339.73 164.165 341.742 164.723C355.38 168.297 406.916 181.696 418.878 183.371Z" fill="#F1A690"/>
<path opacity="0.65" d="M320.39 138.703C320.39 138.703 309.323 159.472 295.349 160.924C295.349 160.924 305.075 127.648 303.733 113.69L320.39 138.703Z" fill="#D1765A"/>
<path d="M170.926 470.787C170.926 470.787 150.021 447.673 158.964 416.854C165.56 394.41 125.092 397.76 129.004 424.559C132.023 444.435 147.785 463.306 170.926 470.787Z" fill="#F35C3D"/>
<path opacity="0.7" d="M138.171 404.685C138.171 404.685 129.787 430.032 139.513 448.456C139.513 448.456 115.925 417.414 138.171 404.685Z" fill="#D03520"/>
<path d="M244.485 426.799C244.485 426.799 247.95 419.541 249.739 417.531C251.527 415.633 240.796 417.196 236.436 419.541L244.485 426.799Z" fill="#C33A28"/>
<path d="M249.739 417.643C249.739 417.643 244.373 420.657 240.907 424.007L244.485 426.687C244.485 426.687 247.95 420.099 249.739 417.643Z" fill="#F58C83"/>
<path d="M224.138 416.851C224.138 416.851 223.02 411.938 221.567 410.04C221.567 410.04 207.929 416.628 203.904 431.814C199.88 447 204.575 450.239 209.829 454.147C214.971 458.055 225.592 458.837 231.964 457.385C237.441 456.045 246.608 449.345 246.049 438.626C245.49 428.018 241.354 417.633 224.138 416.851Z" fill="#C33A28"/>
<path d="M224.474 416.629C224.474 416.629 223.356 412.721 221.903 411.046C221.903 411.046 208.935 416.517 205.134 431.034C201.333 445.55 205.805 448.788 210.724 452.473C215.642 456.158 230.622 456.828 236.659 455.376C241.913 454.148 248.174 448.118 247.726 437.957C247.279 427.795 241.019 417.411 224.474 416.629Z" fill="#F35C3D"/>
<path d="M221.456 411.495C221.456 411.495 215.978 416.967 215.866 423.108C215.866 423.108 219.443 424.113 223.356 422.103C223.356 422.103 224.027 416.073 221.456 411.495Z" fill="#F58C83"/>
<path d="M223.296 438.936C222.376 438.833 221.798 437.258 222.006 435.42C222.214 433.581 223.128 432.175 224.049 432.279C224.969 432.383 225.546 433.957 225.339 435.796C225.131 437.634 224.216 439.04 223.296 438.936Z" fill="white"/>
<path d="M240.223 440.843C239.425 440.753 238.925 439.389 239.105 437.796C239.285 436.202 240.077 434.984 240.875 435.073C241.673 435.163 242.173 436.528 241.993 438.121C241.813 439.715 241.02 440.933 240.223 440.843Z" fill="white"/>
<path d="M233.753 455.156C233.753 455.156 235.541 466.211 231.181 472.241C231.181 472.241 237.106 469.002 241.131 465.987C245.267 462.973 254.546 461.968 249.068 471.794C245.155 478.829 239.119 481.955 235.318 482.179C231.517 482.514 227.157 479.387 227.157 479.387C227.157 479.387 222.797 501.72 215.307 500.826C215.307 500.826 226.039 505.516 223.58 510.541C221.12 515.566 218.661 520.479 220.338 522.489C222.015 524.387 232.299 527.625 227.604 530.417C222.909 533.208 209.829 523.829 206.14 519.474C202.451 515.119 197.644 510.206 194.514 511.099C191.384 512.104 183.559 514.672 177.187 505.181C177.187 505.181 176.739 508.643 167.349 509.313C157.847 509.983 154.493 506.521 150.58 507.638C146.668 508.754 154.828 520.144 149.239 519.586C143.649 518.916 140.855 505.963 146.221 502.39C151.586 498.816 166.455 495.69 172.156 481.174C177.745 466.657 187.918 460.404 196.75 457.166C205.581 454.039 206.587 449.015 206.587 449.015C206.587 449.015 232.523 449.35 233.753 455.156Z" fill="#F35C3D"/>
<path d="M234.871 456.046C234.871 456.046 235.206 506.518 209.382 501.382C192.726 498.143 218.102 453.255 218.102 453.255C218.102 453.255 225.145 458.615 234.871 456.046Z" fill="#F58C83"/>
<path fill-rule="evenodd" clip-rule="evenodd" d="M248.372 463.9C248.826 463.939 249.202 464.079 249.456 464.356L249.491 464.395L249.539 464.414C249.539 464.414 249.539 464.414 249.539 464.414L249.548 464.418C249.556 464.421 249.569 464.428 249.587 464.437C249.622 464.457 249.675 464.488 249.736 464.534C249.86 464.625 250.019 464.774 250.154 465.002C250.42 465.449 250.62 466.243 250.189 467.591L250.159 467.683L250.204 467.768L250.206 467.772C250.207 467.776 250.21 467.782 250.214 467.79C250.222 467.806 250.234 467.832 250.248 467.865C250.276 467.931 250.315 468.029 250.352 468.15C250.427 468.394 250.498 468.726 250.485 469.091C250.472 469.453 250.377 469.845 250.124 470.216C249.87 470.587 249.447 470.952 248.754 471.245C248.636 471.295 248.581 471.43 248.631 471.548C248.68 471.665 248.816 471.72 248.934 471.671C249.694 471.35 250.193 470.933 250.505 470.477C250.818 470.021 250.932 469.54 250.947 469.107C250.963 468.676 250.879 468.29 250.794 468.013C250.751 467.875 250.707 467.762 250.674 467.683C250.668 467.669 250.662 467.656 250.657 467.644C251.084 466.25 250.893 465.339 250.552 464.765C250.38 464.477 250.176 464.284 250.012 464.162C249.931 464.102 249.859 464.059 249.806 464.03C249.79 464.022 249.776 464.014 249.764 464.008C249.406 463.64 248.916 463.482 248.411 463.439C247.891 463.394 247.33 463.469 246.823 463.583C246.313 463.698 245.845 463.855 245.505 463.983C245.334 464.047 245.195 464.105 245.099 464.146C245.069 464.158 245.043 464.17 245.022 464.179C244.984 464.17 244.934 464.159 244.873 464.148C244.728 464.121 244.524 464.092 244.277 464.082C243.784 464.062 243.118 464.117 242.433 464.421C241.043 465.04 239.673 466.645 239.446 470.439C239.438 470.566 239.536 470.676 239.663 470.684C239.791 470.691 239.9 470.594 239.908 470.467C240.128 466.779 241.441 465.369 242.622 464.844C243.223 464.576 243.814 464.526 244.258 464.544C244.479 464.553 244.662 464.579 244.788 464.603C244.852 464.614 244.9 464.625 244.933 464.633C244.949 464.637 244.961 464.64 244.968 464.642L244.976 464.644L244.977 464.645L245.061 464.669L245.141 464.633L245.142 464.632L245.149 464.629L245.175 464.617C245.199 464.606 245.234 464.591 245.28 464.571C245.372 464.532 245.504 464.478 245.668 464.416C245.995 464.293 246.442 464.143 246.924 464.034C247.409 463.925 247.917 463.861 248.372 463.9Z" fill="#C33A28"/>
<path d="M202.451 464.087C202.898 464.422 203.345 464.869 203.681 465.315C203.793 465.539 203.904 465.874 203.904 466.097C203.904 466.32 203.904 466.655 203.904 466.878V466.99L204.016 467.102C204.128 467.325 204.352 467.66 204.463 467.883C204.575 468.107 204.687 468.442 204.799 468.665C205.022 469.223 205.134 469.782 205.134 470.34C205.134 470.898 205.134 471.457 204.91 471.903C204.799 472.35 204.463 472.908 204.128 473.243L204.016 473.355V473.578C204.016 474.248 204.016 474.918 203.793 475.365C203.681 475.588 203.569 475.812 203.345 476.035C203.234 476.147 202.898 476.258 202.786 476.258H202.563L202.451 476.37C202.116 476.593 201.445 476.705 200.886 476.705C200.327 476.705 199.768 476.482 199.209 476.258C198.091 475.7 197.085 474.807 196.191 473.913C195.297 472.908 194.514 471.903 193.731 470.787C192.949 469.67 192.278 468.553 191.496 467.437C192.502 470.005 193.731 472.35 195.52 474.583C196.414 475.588 197.421 476.593 198.762 477.263C200.103 477.933 201.669 478.156 203.234 477.263L202.898 477.375C203.457 477.375 203.904 477.152 204.24 476.817C204.575 476.482 204.799 476.147 204.91 475.7C205.246 474.918 205.246 474.137 205.134 473.467L205.022 473.913C205.581 473.355 205.805 472.797 206.028 472.127C206.252 471.457 206.252 470.787 206.14 470.117C206.028 469.447 205.805 468.888 205.581 468.218C205.358 467.66 205.022 467.102 204.575 466.655V466.878C204.575 466.544 204.575 466.209 204.463 465.874C204.352 465.539 204.24 465.315 204.016 464.98C203.569 464.645 203.01 464.31 202.451 464.087Z" fill="#C33A28"/>
<path d="M233.976 463.308C233.081 462.638 224.809 462.303 220.114 454.375C220.114 454.375 227.715 458.283 238 455.157L233.976 463.308Z" fill="#29353B"/>
<path d="M182.44 492.677C182.44 492.677 182.44 509.315 171.261 509.985C160.082 510.543 154.828 508.086 151.139 507.751C151.027 507.751 180.652 509.203 182.44 492.677Z" fill="#C33A28"/>
<path fill-rule="evenodd" clip-rule="evenodd" d="M253.752 444.141L238.772 446.151L238.793 446.303L253.772 444.293L253.752 444.141Z" fill="#29353B"/>
<path fill-rule="evenodd" clip-rule="evenodd" d="M251.317 449.834L241.368 447.936L241.339 448.087L251.288 449.985L251.317 449.834Z" fill="#29353B"/>
<path fill-rule="evenodd" clip-rule="evenodd" d="M208.149 441.616L226.035 442.51L226.043 442.356L208.156 441.462L208.149 441.616Z" fill="#29353B"/>
<path fill-rule="evenodd" clip-rule="evenodd" d="M211.3 447.195L223.038 444.404L223.003 444.254L211.265 447.046L211.3 447.195Z" fill="#29353B"/>
<path d="M317.595 133.121C317.595 133.121 300.939 106.768 298.144 102.525C295.349 98.3935 282.829 70.5894 264.83 81.7557C246.832 92.922 246.385 124.076 251.415 141.16C256.446 158.133 246.273 180.354 229.84 196.322C213.407 212.29 196.303 223.903 205.469 240.987C205.469 240.987 232.858 191.52 285.623 234.511C285.623 234.511 288.418 209.498 284.282 191.52C280.146 173.543 281.487 152.662 281.487 152.662L299.597 181.694L317.595 133.121Z" fill="#A4B640"/>
<path d="M228.051 115.142L264.606 118.492L280.816 81.1969L276.233 120.056L293.448 120.949C293.448 120.949 295.461 54.8445 305.634 49.038C305.634 49.038 298.926 45.1298 300.938 39.3233C302.951 33.5169 308.093 40.775 308.54 43.3432C308.54 43.3432 312.453 37.4251 313.347 33.4052C314.242 29.3853 318.601 25.8121 321.284 26.5938C323.967 27.3754 330.228 24.8072 319.943 19.0007C309.658 13.0826 294.678 14.8692 288.083 36.0851C281.375 57.3011 229.951 71.4823 228.051 115.142Z" fill="#29353B"/>
<g opacity="0.54">
<path opacity="0.54" d="M235.318 115.812C235.988 111.457 236.995 107.214 238.224 103.082C239.454 98.9509 240.907 94.8194 242.808 90.9112C244.708 87.003 246.944 83.2064 249.739 79.8565C252.533 76.5066 255.887 73.7151 259.912 71.9285C268.072 68.8019 275.451 63.8887 282.158 58.3056C288.865 52.7224 295.014 46.4693 300.492 39.7695C297.697 43.1194 294.679 46.246 291.66 49.3725C288.53 52.4991 285.4 55.4023 282.046 58.1939C275.339 63.6654 267.961 68.5786 259.8 71.7051C255.775 73.4917 252.31 76.395 249.627 79.7449C246.832 83.0948 244.596 86.8913 242.808 90.7995C239.007 98.7276 236.659 107.214 235.318 115.812Z" fill="white"/>
</g>
<g opacity="0.24">
<path opacity="0.24" d="M300.268 40.6631C299.15 44.4596 297.249 47.9212 295.237 51.2711C293.113 54.621 290.877 57.7475 288.306 60.7624C283.275 66.6806 277.35 71.9287 271.09 76.7302C269.525 77.9585 267.96 79.0751 266.395 80.3034C264.942 81.5317 263.6 83.095 262.371 84.6583C260.023 87.7848 258.458 91.4697 257.452 95.2663C255.551 102.859 255.775 110.899 257.452 118.604C256.669 114.807 256.222 110.899 256.222 106.991C256.222 103.083 256.669 99.1745 257.564 95.3779C258.57 91.5814 260.135 88.0082 262.482 84.8816C263.6 83.3183 264.942 81.8667 266.395 80.6384C267.848 79.4101 269.525 78.2935 271.09 77.0652C277.35 72.2637 283.164 67.0155 288.194 60.9857C290.765 57.9708 293.001 54.8443 295.125 51.4944C297.361 47.9212 299.15 44.4596 300.268 40.6631Z" fill="white"/>
</g>
<path d="M281.71 23.6929C278.357 29.8344 271.426 32.4026 266.172 29.276C260.917 26.1495 259.352 18.6681 262.706 12.5266C266.06 6.38514 272.991 3.81689 278.245 6.94345C283.499 9.95835 285.064 17.5514 281.71 23.6929Z" fill="#29353B"/>
<path d="M284.505 21.9021C281.04 28.2669 273.662 30.7235 267.96 27.3736C262.259 24.0237 260.47 16.0956 263.936 9.73083C267.401 3.36604 274.779 0.909454 280.481 4.25934C286.182 7.60923 287.971 15.5373 284.505 21.9021Z" fill="white"/>
<path d="M268.582 15.8132C267.765 8.51997 272.325 2.02395 278.768 1.3039C285.21 0.58384 291.095 5.91242 291.912 13.2056C292.729 20.4988 288.169 26.9949 281.726 27.7149C275.284 28.435 269.399 23.1064 268.582 15.8132Z" fill="#29353B"/>
<path d="M280.369 156.239L242.584 216.425C242.584 216.425 268.966 219.217 285.623 234.514C285.623 234.514 289.983 191.078 284.17 157.02C283.946 155.122 281.375 154.564 280.369 156.239Z" fill="#B6C148"/>
<path d="M284.281 154.002L259.24 128.989L287.076 185.937L284.281 154.002Z" fill="#6C7B39"/>
<path d="M177.298 280.296L39.684 387.157L74.8981 405.693L177.298 280.296Z" fill="#9CC6F2"/>
<path d="M205.246 241.212C205.246 241.212 243.478 214.971 270.42 224.91C270.42 224.91 227.492 191.969 205.246 241.212Z" fill="#4286D1"/>
<defs>
<linearGradient id="paint0_linear_1_2442" x1="444.5" y1="195.898" x2="513.49" y2="224.411" gradientUnits="userSpaceOnUse">
<stop stop-color="white" stop-opacity="0.21"/>
<stop offset="1" stop-color="white" stop-opacity="0"/>
</linearGradient>
</defs>
</svg>
