<svg width="68" height="40" viewBox="0 0 68 40" fill="none" xmlns="http://www.w3.org/2000/svg">
<path d="M16.7499 0C12.5065 0 8.43686 1.58032 5.43628 4.39333C2.43571 7.20633 0.75 11.0216 0.75 14.9998C0.75 18.9779 2.43571 22.7932 5.43628 25.6063C8.43686 28.4192 12.5065 29.9996 16.7499 29.9996C17.3794 29.9931 18.0077 29.9518 18.6319 29.8759C17.5303 34.4593 15.3054 37.3606 15.2986 37.3692C15.0537 37.6935 14.9404 38.0891 14.979 38.4846C15.0176 38.8803 15.2057 39.25 15.5093 39.5272C15.8129 39.8044 16.2121 39.9708 16.635 39.9965C17.0579 40.0221 17.4767 39.9055 17.8159 39.6673C17.8159 39.6673 31.58 30.2051 32.6458 16.6403C32.7124 16.0957 32.7472 15.548 32.7499 14.9998C32.7506 14.9443 32.7483 14.889 32.743 14.8337C32.6964 10.8855 30.9911 7.11378 27.9971 4.33677C25.0029 1.55975 20.9617 0.00147179 16.7499 0Z" fill="#FFB067" fill-opacity="0.7"/>
<path d="M51.25 0C47.0065 0 42.9368 1.58032 39.9362 4.39333C36.9357 7.20633 35.25 11.0216 35.25 14.9998C35.25 18.9779 36.9357 22.7932 39.9362 25.6063C42.9368 28.4192 47.0065 29.9996 51.25 29.9996C51.8793 29.9931 52.5077 29.9518 53.1319 29.8759C52.0303 34.4593 49.8053 37.3606 49.7986 37.3692C49.5537 37.6935 49.4404 38.0891 49.4789 38.4846C49.5176 38.8803 49.7057 39.25 50.0093 39.5272C50.3128 39.8044 50.712 39.9708 51.135 39.9965C51.5579 40.0221 51.9767 39.9055 52.3159 39.6673C52.3159 39.6673 66.0799 30.2051 67.1457 16.6403C67.2124 16.0957 67.2472 15.548 67.2499 14.9998C67.2505 14.9443 67.2482 14.889 67.2429 14.8337C67.1963 10.8855 65.491 7.11378 62.497 4.33677C59.503 1.55975 55.4617 0.00147179 51.25 0Z" fill="#FFB067" fill-opacity="0.7"/>
</svg>
