<svg width="97" height="36" viewBox="0 0 97 36" fill="none" xmlns="http://www.w3.org/2000/svg">
<g opacity="0.7">
<path d="M21.0989 8.96297H16.9321C16.5247 8.96297 16.0617 9.27774 15.8952 9.66663L11.5988 21.1297C11.4507 21.5185 11.2099 21.5185 11.0433 21.1297L6.74697 9.66663C6.59882 9.27774 6.13586 8.96297 5.70992 8.96297H1.56178C1.13585 8.96297 0.932148 9.27774 1.0803 9.66663L8.20993 27.463C8.35807 27.8519 8.63585 28.1667 9.06177 28.1667H13.6173C14.0248 28.1667 14.3025 27.8519 14.4692 27.463L21.5988 9.66663C21.7284 9.27774 21.5247 8.96297 21.0989 8.96297ZM20.284 32.0185H2.59881C2.30252 32.0185 2.06178 32.2592 2.06178 32.5555V33.463C2.06178 33.7593 2.30252 34 2.59881 34H20.2655C20.5617 34 20.8025 33.7593 20.8025 33.463V32.5555C20.8025 32.2592 20.5617 32.0185 20.284 32.0185ZM62.8396 8.96297H58.6543C58.2285 8.96297 57.8951 9.29628 57.8951 9.72225V27.4259C57.8951 27.8518 58.2285 28.1852 58.6543 28.1852H62.8396C63.2469 28.1852 63.5988 27.8518 63.5988 27.4259V9.72225C63.5988 9.29628 63.2655 8.96297 62.8396 8.96297ZM72.6358 1.51852H68.4507C68.0432 1.51852 67.6914 1.85185 67.6914 2.27777V27.4259C67.6914 27.8518 68.0248 28.1852 68.4507 28.1852H72.6358C73.0433 28.1852 73.3952 27.8518 73.3952 27.4259V2.27777C73.3766 1.87037 73.0433 1.51852 72.6358 1.51852ZM60.747 0C58.9877 0 57.5433 1.44445 57.5433 3.2037C57.5433 4.96296 58.9877 6.40741 60.747 6.40741C62.5062 6.40741 63.9507 4.96296 63.9507 3.2037C63.9507 1.44445 62.5248 0 60.747 0ZM31.2654 8.68519C30.0618 8.68519 28.8951 8.92592 27.8025 9.38889C26.6914 9.85185 25.7099 10.5185 24.8581 11.3889C23.9877 12.2778 23.284 13.3148 22.821 14.5C22.3211 15.7407 22.0618 17.1111 22.0618 18.5556C22.0618 20.074 22.3211 21.5 22.8396 22.7777C23.3396 23.9815 24.0433 25.037 24.9692 25.9259C26.7285 27.6296 29.1359 28.5556 31.7285 28.5556C35.1174 28.5556 37.9506 27.0555 39.4878 24.4259C39.4878 24.4259 39.5062 24.3889 39.5433 24.3333C39.5803 24.2778 39.3025 24.0926 38.9506 23.9074L35.9877 22.4259C35.6358 22.2407 35.321 22.1297 35.284 22.1852L35.2284 22.2592C34.4877 23.3518 33.321 23.9074 31.7469 23.9074C29.6914 23.9074 27.9137 22.6111 27.4507 20.7408C27.4507 20.7408 27.4136 20.6111 27.3766 20.4445C27.3396 20.2778 27.6174 20.1481 28.0247 20.1481H39.8025C40.2099 20.1481 40.5247 19.8333 40.5247 19.426V18.4074C40.5247 15.463 39.6729 13 38.0618 11.2963C36.4507 9.59256 34.0988 8.68519 31.2654 8.68519ZM34.5432 16.3333H28.1173C27.7099 16.3333 27.4507 16.1852 27.5062 16.0186L27.6174 15.7037C27.8025 15.1667 28.1173 14.6481 28.5248 14.2407C29.0247 13.7222 29.9322 13.1297 31.358 13.1297C32.6173 13.1297 33.5988 13.4815 34.3025 14.1852C34.7099 14.5926 34.9878 15.1296 35.1543 15.7407C35.1543 15.7407 35.1914 15.8703 35.2284 16.037C35.247 16.2037 34.9507 16.3333 34.5432 16.3333ZM96.1729 8.96297H92.0059C91.5991 8.96297 91.1356 9.27774 90.9691 9.66663L86.6729 21.1297C86.5247 21.5185 86.284 21.5185 86.1174 21.1297L81.8211 9.66663C81.6729 9.27774 81.21 8.96297 80.784 8.96297H76.6359C76.2285 8.96297 76.0062 9.27774 76.1544 9.66663L82.747 26.537C83.2099 27.7778 83.5062 28.5925 83.5062 28.7037C83.5062 29.2593 83.247 29.7778 82.8951 30.2778C82.5433 30.7777 82.0988 31.0185 81.5988 31.0185C80.8396 31.0185 80.1174 30.7408 79.3951 30.2037C79.0617 29.9444 78.6914 30.037 78.5433 30.4074L77.3211 33.5741C77.1729 33.9629 77.3211 34.4815 77.6544 34.7222C78.9507 35.5741 80.3025 36 81.7099 36C83.0803 36 84.3211 35.6297 85.4321 34.9074C86.5433 34.1667 87.5063 33.1482 88.0433 31.8334L89.1914 28.8889C89.3396 28.5 89.5803 27.8704 89.747 27.4815C90.9322 24.4814 95.5249 12.6852 96.6913 9.68517C96.8029 9.27774 96.5986 8.96297 96.1729 8.96297ZM54.21 8.7037C53.3766 8.81482 52.5432 9.07407 51.7285 9.50004C50.9136 9.92592 50.2099 10.426 49.6173 11C49.3581 11.2593 49.1544 11.1852 49.1544 10.8148V9.62964C49.1544 9.25929 48.8581 8.96297 48.4878 8.96297H44.1359C43.7655 8.96297 43.4692 9.25929 43.4692 9.62964V27.5C43.4692 27.8704 43.7655 28.1667 44.1359 28.1667H48.4878C48.8581 28.1667 49.1544 27.8704 49.1544 27.5V19.8889C49.1544 18.0371 49.5433 16.5556 50.3211 15.4259C51.0988 14.2963 52.284 13.7407 53.8766 13.7407H54.3951C54.6729 13.7407 54.9137 13.4445 54.9137 13.074L54.8951 9.31482C54.8766 8.94444 54.5803 8.64814 54.21 8.7037Z" fill="#141414"/>
</g>
</svg>
