<svg width="135" height="36" viewBox="0 0 135 36" fill="none" xmlns="http://www.w3.org/2000/svg">
<g opacity="0.7" clip-path="url(#clip0_1_2423)">
<path d="M49.3398 26.9439H52.4036L51.8839 24.5639V10.4208H48.9568V16.8769C48.0814 15.8647 46.8503 15.2628 45.4278 15.2628C42.5007 15.2628 40.2301 17.6976 40.2301 21.2265C40.2301 24.7828 42.5007 27.1902 45.4278 27.1902C46.8777 27.1902 48.1361 26.5609 49.0115 25.494L49.3398 26.9439ZM107.225 18.4361C107.827 18.4361 108.375 18.6003 108.867 18.9559L110.262 15.8373C109.606 15.427 108.867 15.2628 108.128 15.2628C106.815 15.2628 105.694 15.8647 105.01 16.9862L104.709 15.5364H101.699L102.192 17.7796V26.9713H105.119V19.6672C105.502 18.9012 106.24 18.4361 107.225 18.4361ZM115.788 24.1262C114.092 24.1262 112.834 23.0046 112.834 21.2539C112.834 19.4757 114.092 18.3814 115.788 18.3814C117.512 18.3814 118.743 19.4757 118.743 21.2539C118.743 22.9773 117.512 24.1262 115.788 24.1262ZM43.0752 21.2265C43.0752 19.4483 44.3336 18.3541 46.0296 18.3541C47.7531 18.3541 48.9841 19.4483 48.9841 21.2265C48.9841 22.9773 47.7531 24.0989 46.0296 24.0989C44.3336 24.1262 43.0752 22.9773 43.0752 21.2265ZM128.782 24.1262C127.086 24.1262 125.828 23.0046 125.828 21.2539C125.828 19.4757 127.086 18.3814 128.782 18.3814C130.506 18.3814 131.737 19.4757 131.737 21.2539C131.71 22.9773 130.478 24.1262 128.782 24.1262ZM59.5163 18.19C61.0209 18.19 62.0057 18.9012 62.334 20.2143H56.6985C56.9995 18.8738 58.0117 18.19 59.5163 18.19ZM94.5049 18.19C96.0097 18.19 96.994 18.9012 97.3223 20.2143H91.6874C92.0431 18.8738 93.0274 18.19 94.5049 18.19ZM80.2248 26.9439H84.9301L87.9937 15.4817H84.7933L82.5778 24.7828L80.3342 15.5091H77.1885L80.2248 26.9439ZM72.702 26.9439H75.6289V15.4817H72.702V26.9439ZM59.9539 27.1628C61.5954 27.1628 63.182 26.6978 64.5225 25.8497L63.4009 23.3329C62.3613 23.9074 61.1577 24.2083 59.9813 24.2083C58.4494 24.2083 57.3825 23.6065 56.8901 22.4849H65.1517C65.2338 22.0472 65.2884 21.6642 65.2884 21.1444C65.2884 17.5881 62.8264 15.2355 59.571 15.2355C56.2608 15.2355 53.8535 17.6428 53.8535 21.1991C53.8262 24.8375 56.2336 27.1628 59.9539 27.1628ZM134.554 21.2265C134.554 17.6702 132.093 15.2628 128.782 15.2628C125.445 15.2628 123.01 17.6976 123.01 21.2265C123.01 24.7554 125.472 27.1902 128.782 27.1902C132.093 27.1902 134.554 24.7828 134.554 21.2265ZM94.9153 27.1902C96.5569 27.1902 98.1431 26.7525 99.4838 25.8771L98.362 23.3603C97.3223 23.9348 96.1191 24.2357 94.9426 24.2357C93.4104 24.2357 92.3441 23.6339 91.8516 22.5122H100.113C100.195 22.0745 100.25 21.6916 100.25 21.1718C100.25 17.6155 97.7874 15.2628 94.5322 15.2628C91.2223 15.2628 88.8146 17.6702 88.8146 21.2265C88.8146 24.8922 91.1949 27.1902 94.9153 27.1902ZM115.788 27.1902C119.126 27.1902 121.56 24.7554 121.56 21.2265C121.56 17.6976 119.098 15.2628 115.788 15.2628C112.451 15.2628 110.016 17.6976 110.016 21.2265C110.016 24.7554 112.451 27.1902 115.788 27.1902ZM67.1486 26.9439H70.0758V10.4208H67.1486V26.9439ZM74.1795 13.9224C75.1911 13.9224 76.012 13.1017 76.012 12.0621C76.012 11.0226 75.2185 10.2019 74.1795 10.2019C73.1398 10.2019 72.319 11.0226 72.319 12.0621C72.319 13.1017 73.1125 13.9224 74.1795 13.9224ZM23.8711 -0.00195312L22.2024 15.8647L19.3574 2.48747L10.3845 4.37505L13.2022 17.7523L0.290039 20.4878L2.58796 31.1568L25.321 35.9988L30.5187 24.3725L32.9807 0.955517L23.8711 -0.00195312ZM16.6765 23.032C16.2114 23.4697 15.6095 23.415 14.9256 23.1962C14.2691 22.9773 13.9955 22.2113 14.2144 21.2265C14.4059 20.5152 15.2539 20.4058 15.719 20.4058C15.8831 20.4058 16.0472 20.4332 16.2114 20.5152C16.5123 20.652 17.0321 20.9529 17.1415 21.3906C17.3056 22.0472 17.1415 22.5943 16.6765 23.032ZM23.2693 23.7432C22.9137 24.3451 22.0383 24.4272 21.1355 23.9895C20.5336 23.6885 20.5336 22.9773 20.6157 22.5122C20.6431 22.2661 20.7525 22.0198 20.9166 21.8284C21.1355 21.5548 21.4911 21.1991 21.8741 21.1991C22.558 21.1718 23.1051 21.4727 23.4334 22.0198C23.7617 22.5669 23.5975 23.1688 23.2693 23.7432Z" fill="#141414"/>
</g>
<defs>
<clipPath id="clip0_1_2423">
<rect width="134.643" height="36" fill="white" transform="translate(0.290039)"/>
</clipPath>
</defs>
</svg>
