<svg width="95" height="36" viewBox="0 0 95 36" fill="none" xmlns="http://www.w3.org/2000/svg">
<g opacity="0.7" clip-path="url(#clip0_1_2425)">
<path d="M1.29199 9.28718H8.04202C12.3505 9.28718 15.0792 12.734 15.0792 17.4734C15.0792 20.0585 14.2175 22.3564 12.4941 23.7926C11.3452 24.7978 9.76534 25.3723 7.75475 25.3723H1.29199V9.28718ZM7.53933 22.5718C10.6271 22.5718 11.776 20.7048 11.776 17.5452C11.776 14.3857 10.4117 12.1595 7.61114 12.1595H4.52338V22.6436H7.53933V22.5718ZM15.5819 19.6277C15.5819 16.1809 18.0234 13.5239 21.6138 13.5239C25.2042 13.5239 27.6457 16.1809 27.6457 19.6277C27.6457 23.0744 25.2042 25.7314 21.6138 25.7314C18.0234 25.7314 15.5819 23.0026 15.5819 19.6277ZM24.4861 19.6277C24.4861 17.4016 23.409 15.8218 21.542 15.8218C19.6749 15.8218 18.5979 17.3298 18.5979 19.6277C18.5979 21.9255 19.6032 23.3617 21.542 23.3617C23.4808 23.3617 24.4861 21.8537 24.4861 19.6277ZM28.2201 19.6277C28.2201 16.1809 30.4463 13.5239 33.9648 13.5239C36.9808 13.5239 38.776 15.2474 39.2069 17.7607H36.1909C35.9755 16.7553 35.1856 15.9655 34.1085 15.9655C32.2415 15.9655 31.308 17.4016 31.308 19.6277C31.308 21.7819 32.1696 23.2899 34.0367 23.2899C35.2574 23.2899 36.1191 22.6436 36.3345 21.351H39.3504C39.135 23.7926 37.2681 25.7314 34.1803 25.7314C30.5181 25.6596 28.2201 23.0026 28.2201 19.6277ZM47.3931 25.3723V24.008H47.3212C46.5313 25.0851 45.6696 25.6596 44.018 25.6596C41.433 25.6596 39.9968 24.0079 39.9968 21.4947V13.8112H43.0127V20.9921C43.0127 22.3564 43.5872 23.0744 44.9515 23.0744C46.3877 23.0744 47.2494 21.9973 47.2494 20.4893V13.8112H50.3372V25.3006H47.3931V25.3723ZM65.2015 9.35902H68.2893V12.2314H65.2015V9.35902ZM65.2015 13.8112H68.2893V25.3006H65.2015V13.8112ZM69.51 25.6596H72.526C72.7411 26.3776 73.4596 26.9521 74.8241 26.9521C76.5471 26.9521 77.4089 26.0905 77.4089 24.5824V23.2899H77.3369C76.6911 24.0797 75.7577 24.6542 74.3213 24.6542C71.7363 24.6542 69.2229 22.6436 69.2229 19.125C69.2229 15.6782 71.3055 13.5239 74.1774 13.5239C75.6138 13.5239 76.6911 14.0984 77.3369 15.032H77.4089V13.8112H80.3534V24.4388C80.3534 26.0905 79.8501 27.1675 78.9884 27.9575C78.0546 28.891 76.5471 29.25 74.8241 29.25C71.8082 29.25 69.8691 27.9574 69.51 25.6596ZM77.6241 19.0532C77.6241 17.4016 76.6904 15.9655 74.896 15.9655C73.3158 15.9655 72.3102 17.1862 72.3102 19.125C72.3102 21.0638 73.3158 22.2128 74.896 22.2128C76.8344 22.2128 77.6241 20.7766 77.6241 19.0532ZM84.7334 15.391C85.5951 14.1703 86.6721 13.5239 88.1796 13.5239C90.5496 13.5239 92.1291 15.3191 92.1291 17.8324V25.3723H89.0414V18.3351C89.0414 17.1144 88.3236 16.2527 87.0314 16.2527C85.6671 16.2527 84.6614 17.3298 84.6614 18.9096V25.4441H81.7176V13.9547H84.7334V15.391ZM58.2361 15.6781C55.8664 15.1756 54.7893 14.7446 54.7893 13.4521C54.7893 12.3032 55.9382 11.5851 57.6616 11.5851C59.2414 11.5851 60.4622 12.3032 60.7494 13.8112H63.909C63.55 10.7234 61.2521 9 57.6616 9C54.0712 9 51.4861 10.6516 51.4861 13.8112C51.4861 17.1862 54.143 17.9043 57.0154 18.5505C59.4568 19.125 60.9648 19.4122 60.9648 20.9921C60.9648 22.5 59.5287 23.0744 57.877 23.0744C55.5792 23.0744 54.5021 22.2845 54.2867 20.3457H51.1271C51.2707 23.7208 53.7122 25.6596 58.0926 25.6596C61.683 25.6596 64.3398 23.8643 64.3398 20.5612C64.268 17.1862 61.5393 16.3963 58.2361 15.6781ZM93.4221 15.9655C92.7764 15.9655 92.2011 15.391 92.2011 14.7446C92.2011 14.0984 92.7764 13.5239 93.4221 13.5239C94.0686 13.5239 94.6431 14.0984 94.6431 14.7446C94.6431 15.391 94.0686 15.9655 93.4221 15.9655ZM93.4221 13.7393C92.8476 13.7393 92.4171 14.1703 92.4171 14.7446C92.4171 15.3191 92.8476 15.75 93.4221 15.75C93.9966 15.75 94.4271 15.3191 94.4271 14.7446C94.4271 14.1703 93.9966 13.7393 93.4221 13.7393Z" fill="#141414"/>
<path d="M92.9922 14.0996H93.4234C93.5667 14.0996 93.7099 14.0996 93.7819 14.1714C93.8539 14.2432 93.9259 14.3151 93.9259 14.4586C93.9259 14.6741 93.7819 14.7459 93.7099 14.8177L93.9979 15.3204H93.7099L93.4947 14.8895H93.2082V15.3204H92.9922V14.0996ZM93.2082 14.3151V14.6741H93.4234C93.4954 14.6741 93.6387 14.6741 93.6387 14.4586C93.6387 14.4586 93.6387 14.3151 93.5667 14.3151H93.2082Z" fill="#141414"/>
</g>
<defs>
<clipPath id="clip0_1_2425">
<rect width="93.75" height="36" fill="white" transform="translate(0.941406)"/>
</clipPath>
</defs>
</svg>
