<svg width="48" height="48" viewBox="0 0 48 48" fill="none" xmlns="http://www.w3.org/2000/svg">
<path d="M30.1666 26.3792C29.4949 26.2347 28.9635 26.5466 28.493 26.8189C28.0111 27.0996 27.0949 27.8429 26.5697 27.6526C23.8808 26.5455 21.3519 24.192 20.2571 21.4924C20.0642 20.956 20.804 20.0339 21.0826 19.5464C21.3529 19.0744 21.6583 18.538 21.519 17.8613C21.3932 17.2532 19.765 15.1814 19.1892 14.6148C18.8095 14.2406 18.4205 14.0348 18.0212 14.0015C16.52 13.9371 14.8433 15.9402 14.5492 16.4195C13.8125 17.4413 13.8166 18.801 14.5616 20.4497C16.3569 24.8781 23.1472 31.5613 27.5922 33.4241C28.4125 33.8077 29.1626 34 29.8364 34C30.4957 34 31.0828 33.816 31.5874 33.4511C31.9681 33.2318 34.0534 31.4719 33.9987 29.9302C33.9657 29.5373 33.7604 29.1444 33.391 28.7639C32.8286 28.1828 30.7702 26.506 30.1666 26.3792Z" fill="white"/>
</svg>
