<svg width="169" height="56" viewBox="0 0 169 56" fill="none" xmlns="http://www.w3.org/2000/svg">
<path d="M76.1697 3.63607H81.4566L84.8843 17.3425L88.5735 3.63607H93.1051L96.7943 17.314L100.193 3.63607H105.335L99.1764 23.868H94.4704L90.7812 10.1616L87.092 23.868H82.328L76.1697 3.63607Z" fill="white"/>
<path d="M104.927 19.5652C104.927 16.1457 108.21 14.6639 111.318 14.6639C112.509 14.6639 113.439 14.8349 114.542 15.2623V14.4929C114.542 13.0112 113.671 12.0423 112.131 12.0423C111.115 12.0423 110.127 12.4982 109.72 13.4671L105.479 12.7547C106.118 9.81965 109.343 8.25238 112.219 8.25238C116.111 8.25238 119.132 10.6745 119.132 14.7209V23.868H114.891L114.775 22.0728C113.903 23.6116 112.044 24.2955 110.33 24.2955C107.513 24.2955 104.927 22.5572 104.927 19.5652ZM109.575 19.2802C109.575 20.3631 110.679 20.8475 111.638 20.8475C113.206 20.8475 114.542 19.8501 114.542 18.2259V18.0834C113.7 17.7415 113.119 17.599 112.19 17.599C111.115 17.599 109.575 17.9409 109.575 19.2802Z" fill="white"/>
<path d="M121.817 23.868V2.55324H126.551V23.868H121.817Z" fill="white"/>
<path d="M129.214 2.55324H133.949V14.7494L139.061 8.67982H144.435L138.509 15.4048L145.133 23.868H139.294L133.949 16.4022V23.868H129.214V2.55324Z" fill="white"/>
<path d="M146.37 23.868V8.67982H151.105V23.868H146.37ZM146.457 5.97272C146.224 5.60228 146.108 5.17484 146.108 4.69042C146.108 4.20599 146.224 3.77855 146.457 3.40811C146.892 2.61023 147.822 2.1543 148.723 2.1543C149.681 2.1543 150.553 2.61023 151.046 3.40811C151.25 3.77855 151.366 4.20599 151.366 4.69042C151.366 5.17484 151.25 5.60228 151.046 5.97272C150.553 6.77061 149.681 7.22654 148.723 7.22654C147.822 7.22654 146.892 6.77061 146.457 5.97272Z" fill="white"/>
<path d="M161.203 24.2955C156.497 24.2955 153.244 20.9045 153.244 16.2312C153.244 11.8998 156.439 8.25238 161.058 8.25238C165.909 8.25238 168.785 11.7289 168.785 16.4592V17.485H158.095C158.444 19.1378 159.431 20.3916 161.261 20.3916C162.54 20.3916 163.382 19.9071 164.166 18.9098L168.495 20.0211C167.275 22.8422 164.224 24.2955 161.203 24.2955ZM161.058 11.7289C159.315 11.7289 158.415 12.9542 158.095 14.5214H163.905C163.643 12.9542 162.801 11.7289 161.058 11.7289Z" fill="white"/>
<path d="M77.1283 53.4192V33.1872H84.1C88.6607 33.1872 92.437 35.1819 92.437 40.1972C92.437 44.7565 88.6026 47.1501 84.1872 47.1501C83.519 47.1501 82.8219 47.0931 82.0956 46.9791V53.4192H77.1283ZM82.0956 37.3191V42.8757C82.7638 42.9612 83.4028 43.0182 83.9548 43.0182C85.872 43.0182 87.3535 42.2203 87.3535 40.1687C87.3535 38.1455 85.9301 37.3191 84.0129 37.3191H82.0956Z" fill="white"/>
<path d="M93.2397 49.1163C93.2397 45.6968 96.5222 44.215 99.6305 44.215C100.821 44.215 101.751 44.386 102.855 44.8135V44.0441C102.855 42.5623 101.983 41.5934 100.444 41.5934C99.4271 41.5934 98.4395 42.0494 98.0328 43.0182L93.7917 42.3058C94.4307 39.3708 97.6551 37.8035 100.531 37.8035C104.424 37.8035 107.445 40.2256 107.445 44.272V53.4192H103.203L103.087 51.6239C102.216 53.1627 100.357 53.8466 98.6428 53.8466C95.8251 53.8466 93.2397 52.1084 93.2397 49.1163ZM97.8875 48.8314C97.8875 49.9142 98.9914 50.3986 99.95 50.3986C101.519 50.3986 102.855 49.4013 102.855 47.777V47.6345C102.012 47.2926 101.431 47.1501 100.502 47.1501C99.4271 47.1501 97.8875 47.4921 97.8875 48.8314Z" fill="white"/>
<path d="M113.482 53.4192L108.369 38.2309H113.307L115.748 47.834L118.536 38.2309H122.719L125.508 47.891L128.035 38.2309H132.799L127.687 53.4192H123.3L120.57 43.9016L117.81 53.4192H113.482Z" fill="white"/>
<path d="M133.334 49.6577L137.692 48.8884C138.098 49.8572 139.115 50.3416 140.132 50.3416C140.945 50.3416 142.049 50.0567 142.049 49.0593C142.049 48.6889 141.875 48.4039 141.526 48.2045C141.148 48.005 140.538 47.834 139.667 47.6915L138.97 47.5775C136.355 47.1216 133.741 45.8108 133.741 42.8473C133.741 39.4848 136.82 37.8035 139.987 37.8035C142.775 37.8035 145.564 39.0288 146.377 41.8784L142.049 42.6478C141.875 42.2203 141.613 41.9069 141.265 41.6504C140.887 41.4225 140.48 41.3085 139.987 41.3085C139.202 41.3085 138.273 41.5934 138.273 42.5053C138.273 42.8188 138.447 43.0752 138.766 43.2747C139.086 43.4742 139.696 43.6451 140.597 43.7876L141.294 43.9016C143.966 44.3575 146.61 45.6113 146.61 48.6319C146.61 52.1369 143.385 53.8466 140.103 53.8466C137.227 53.8466 134.235 52.5643 133.334 49.6577Z" fill="white"/>
<path d="M17.9659 0.348042C14.9545 1.64112 12.8106 4.97327 12.1068 9.46588C11.8122 11.2729 11.9759 14.9034 12.4178 16.6275C13.007 18.8655 14.0708 20.8715 15.4291 22.2474C16.8857 23.7394 18.0313 24.3197 19.7007 24.4523C21.8446 24.6181 23.8085 23.6897 25.396 21.7501C29.5857 16.6441 29.3239 6.63106 24.8723 2.1053C23.3666 0.59671 22.3028 0.0827955 20.3717 0.0164839C19.0951 -0.0332498 18.7678 0.0164839 17.9659 0.348042Z" fill="white"/>
<path d="M43.1204 0.530401C39.9454 1.3593 37.425 4.75776 36.574 9.33326C36.1812 11.4055 36.2958 15.0692 36.8031 17.0254C37.9487 21.402 40.42 24.2534 43.6114 24.8502C48.8976 25.8283 53.431 18.8987 52.6781 10.9579C52.0398 4.07807 47.6865 -0.679785 43.1204 0.530401Z" fill="white"/>
<path d="M2.30361 22.9437C2.72913 22.5624 3.3183 22.1646 3.62926 22.0651C5.70774 21.3854 7.76985 22.3966 8.8991 24.6347C9.89743 26.624 10.1593 29.3925 9.58648 31.614C8.62088 35.3606 5.60954 37.2339 3.00735 35.6921C-0.65863 33.5204 -1.06778 26.0272 2.30361 22.9437Z" fill="white"/>
<path d="M60.0919 22.2805C58.7335 22.9602 57.8007 24.2699 57.1788 26.4084C56.7696 27.8341 56.8023 30.5198 57.2606 31.9952C58.128 34.7637 60.141 36.4712 62.2195 36.2225C64.8708 35.891 66.7692 32.8738 66.7692 29.0112C66.7529 24.0046 63.3978 20.6062 60.0919 22.2805Z" fill="white"/>
<path d="M8.55542 40.4665C12.8106 31.8958 22.0737 25.447 31.2387 24.6844C31.4676 24.6625 31.6886 24.6418 31.8908 24.6228C32.4545 24.5699 32.8719 24.5308 32.908 24.5186C32.9571 24.5186 33.9391 24.5849 35.0847 24.6678C41.1401 25.1651 46.5409 27.801 51.1397 32.5257C55.7385 37.2338 58.2753 42.804 58.5371 48.8218C58.7663 53.6625 57.4079 55.7845 54.0037 55.9668C52.0235 56.0663 50.6815 55.7513 44.5933 53.7288C36.9831 51.209 34.4464 50.6453 30.6822 50.6619C26.9508 50.6785 24.5777 51.2587 17.9822 53.762C12.7451 55.7513 11.8941 56 10.3557 56C7.72075 56 6.5424 54.4417 6.28055 50.6122C6.06779 47.6447 6.96792 43.6992 8.55542 40.4665Z" fill="white"/>
</svg>
