<svg width="48" height="48" viewBox="0 0 48 48" fill="none" xmlns="http://www.w3.org/2000/svg">
<path fill-rule="evenodd" clip-rule="evenodd" d="M28.9395 15C30.2805 15 31.5705 15.53 32.5195 16.481C33.4695 17.43 34.0005 18.71 34.0005 20.05V27.95C34.0005 30.74 31.7305 33 28.9395 33H19.0605C16.2695 33 14.0005 30.74 14.0005 27.95V20.05C14.0005 17.26 16.2595 15 19.0605 15H28.9395ZM30.5305 21.5403L30.6105 21.4603C30.8495 21.1703 30.8495 20.7503 30.5995 20.4603C30.4605 20.3113 30.2695 20.2203 30.0705 20.2003C29.8605 20.1893 29.6605 20.2603 29.5095 20.4003L25.0005 24.0003C24.4205 24.4813 23.5895 24.4813 23.0005 24.0003L18.5005 20.4003C18.1895 20.1703 17.7595 20.2003 17.5005 20.4703C17.2305 20.7403 17.2005 21.1703 17.4295 21.4703L17.5605 21.6003L22.1105 25.1503C22.6705 25.5903 23.3495 25.8303 24.0605 25.8303C24.7695 25.8303 25.4605 25.5903 26.0195 25.1503L30.5305 21.5403Z" fill="white"/>
</svg>
