<svg width="55" height="46" viewBox="0 0 55 46" fill="none" xmlns="http://www.w3.org/2000/svg">
<path d="M14.7577 0.285891C12.2841 1.34806 10.523 4.08519 9.9449 7.77555C9.70292 9.25986 9.83735 12.2421 10.2003 13.6583C10.6843 15.4967 11.5581 17.1444 12.6739 18.2747C13.8704 19.5003 14.8114 19.9769 16.1827 20.0858C17.9438 20.222 19.557 19.4594 20.861 17.8662C24.3025 13.6719 24.0874 5.44694 20.4308 1.72935C19.194 0.490155 18.3202 0.0680106 16.7339 0.0135404C15.6853 -0.0273123 15.4164 0.0135404 14.7577 0.285891Z" fill="#0C7769"/>
<path d="M35.4203 0.435686C32.8123 1.11656 30.742 3.90816 30.0429 7.66661C29.7203 9.3688 29.8144 12.3783 30.2311 13.9852C31.1722 17.5802 33.2021 19.9224 35.8236 20.4126C40.1659 21.2161 43.8897 15.5239 43.2713 9.00113C42.747 3.34984 39.171 -0.558395 35.4203 0.435686Z" fill="#0C7769"/>
<path d="M1.89225 18.8466C2.24178 18.5334 2.72575 18.2066 2.98118 18.1249C4.6885 17.5666 6.38238 18.3972 7.30998 20.2356C8.13003 21.8697 8.34513 24.1438 7.8746 25.9686C7.08144 29.0462 4.60784 30.585 2.47032 29.3185C-0.541017 27.5346 -0.877104 21.3795 1.89225 18.8466Z" fill="#0C7769"/>
<path d="M49.3612 18.3019C48.2454 18.8602 47.4791 19.936 46.9683 21.6926C46.6322 22.8638 46.6591 25.0698 47.0355 26.2818C47.748 28.5559 49.4015 29.9585 51.1089 29.7542C53.2867 29.4819 54.8461 27.0035 54.8461 23.8306C54.8327 19.7181 52.0768 16.9265 49.3612 18.3019Z" fill="#0C7769"/>
<path d="M7.02767 33.2404C10.523 26.2001 18.132 20.9029 25.6603 20.2764C25.8484 20.2585 26.03 20.2414 26.196 20.2259C26.659 20.1824 27.0019 20.1503 27.0316 20.1403C27.0719 20.1403 27.8785 20.1947 28.8196 20.2628C33.7936 20.6714 38.23 22.8365 42.0076 26.7175C45.7852 30.5849 47.869 35.1604 48.0841 40.1036C48.2723 44.0799 47.1565 45.823 44.3602 45.9728C42.7336 46.0545 41.6312 45.7957 36.6302 44.1344C30.379 42.0645 28.2953 41.6015 25.2033 41.6151C22.1381 41.6288 20.1888 42.1054 14.7711 44.1616C10.4692 45.7957 9.77014 46 8.50645 46C6.34205 46 5.37412 44.72 5.15902 41.5743C4.98426 39.1368 5.72365 35.8958 7.02767 33.2404Z" fill="#0C7769"/>
</svg>
