<svg width="139" height="46" viewBox="0 0 139 46" fill="none" xmlns="http://www.w3.org/2000/svg">
<path d="M62.5679 2.98622H66.9107L69.7263 14.2451L72.7567 2.98622H76.4791L79.5096 14.2217L82.3014 2.98622H86.5249L81.4662 19.6053H77.6006L74.5702 8.34647L71.5398 19.6053H67.6265L62.5679 2.98622Z" fill="#0C7769"/>
<path d="M86.1902 16.0708C86.1902 13.262 88.8866 12.0448 91.4398 12.0448C92.4181 12.0448 93.1817 12.1852 94.0884 12.5364V11.9044C94.0884 10.6872 93.3726 9.89134 92.1079 9.89134C91.2727 9.89134 90.4614 10.2659 90.1274 11.0617L86.6436 10.4765C87.1686 8.06558 89.8172 6.77818 92.1795 6.77818C95.3769 6.77818 97.8585 8.7678 97.8585 12.0916V19.6053H94.3747L94.2793 18.1307C93.5634 19.3947 92.0363 19.9564 90.6285 19.9564C88.3139 19.9564 86.1902 18.5286 86.1902 16.0708ZM90.0081 15.8368C90.0081 16.7262 90.9148 17.1242 91.7022 17.1242C92.9908 17.1242 94.0884 16.3049 94.0884 14.9707V14.8537C93.3964 14.5728 92.9192 14.4557 92.1556 14.4557C91.2727 14.4557 90.0081 14.7366 90.0081 15.8368Z" fill="#0C7769"/>
<path d="M100.063 19.6053V2.09674H103.953V19.6053H100.063Z" fill="#0C7769"/>
<path d="M106.14 2.09674H110.029V12.115L114.229 7.12929H118.643L113.775 12.6534L119.216 19.6053H114.42L110.029 13.4726V19.6053H106.14V2.09674Z" fill="#0C7769"/>
<path d="M120.232 19.6053V7.12929H124.122V19.6053H120.232ZM120.304 4.90561C120.113 4.60131 120.017 4.25021 120.017 3.85228C120.017 3.45436 120.113 3.10325 120.304 2.79896C120.662 2.14356 121.425 1.76904 122.165 1.76904C122.952 1.76904 123.668 2.14356 124.074 2.79896C124.241 3.10325 124.336 3.45436 124.336 3.85228C124.336 4.25021 124.241 4.60131 124.074 4.90561C123.668 5.56101 122.952 5.93552 122.165 5.93552C121.425 5.93552 120.662 5.56101 120.304 4.90561Z" fill="#0C7769"/>
<path d="M132.417 19.9564C128.551 19.9564 125.879 17.171 125.879 13.3322C125.879 9.77431 128.504 6.77818 132.298 6.77818C136.283 6.77818 138.645 9.63386 138.645 13.5195V14.3621H129.864C130.15 15.7197 130.961 16.7497 132.465 16.7497C133.515 16.7497 134.207 16.3517 134.851 15.5325L138.406 16.4454C137.404 18.7627 134.899 19.9564 132.417 19.9564ZM132.298 9.63386C130.866 9.63386 130.126 10.6404 129.864 11.9278H134.636C134.421 10.6404 133.729 9.63386 132.298 9.63386Z" fill="#0C7769"/>
<path d="M63.3553 43.8795V27.2604H69.0821C72.8283 27.2604 75.9303 28.8989 75.9303 33.0185C75.9303 36.7637 72.7806 38.7299 69.1537 38.7299C68.6048 38.7299 68.0322 38.6831 67.4356 38.5894V43.8795H63.3553ZM67.4356 30.6544V35.2188C67.9844 35.289 68.5094 35.3358 68.9628 35.3358C70.5376 35.3358 71.7546 34.6804 71.7546 32.9951C71.7546 31.3332 70.5853 30.6544 69.0105 30.6544H67.4356Z" fill="#0C7769"/>
<path d="M76.5897 40.345C76.5897 37.5361 79.286 36.3189 81.8392 36.3189C82.8176 36.3189 83.5811 36.4594 84.4879 36.8105V36.1785C84.4879 34.9613 83.772 34.1655 82.5074 34.1655C81.6722 34.1655 80.8609 34.54 80.5268 35.3358L77.0431 34.7507C77.568 32.3397 80.2166 31.0523 82.5789 31.0523C85.7764 31.0523 88.258 33.0419 88.258 36.3658V43.8795H84.7742L84.6788 42.4048C83.9629 43.6688 82.4358 44.2306 81.0279 44.2306C78.7134 44.2306 76.5897 42.8027 76.5897 40.345ZM80.4075 40.1109C80.4075 41.0004 81.3143 41.3983 82.1017 41.3983C83.3902 41.3983 84.4879 40.5791 84.4879 39.2448V39.1278C83.7959 38.8469 83.3186 38.7299 82.5551 38.7299C81.6722 38.7299 80.4075 39.0108 80.4075 40.1109Z" fill="#0C7769"/>
<path d="M93.2171 43.8795L89.0175 31.4034H93.0739L95.0783 39.2917L97.369 31.4034H100.805L103.096 39.3385L105.172 31.4034H109.085L104.885 43.8795H101.282L99.0393 36.0615L96.7725 43.8795H93.2171Z" fill="#0C7769"/>
<path d="M109.525 40.7897L113.104 40.1577C113.438 40.9536 114.273 41.3515 115.108 41.3515C115.776 41.3515 116.683 41.1174 116.683 40.2982C116.683 39.9939 116.54 39.7598 116.254 39.596C115.943 39.4321 115.442 39.2917 114.726 39.1746L114.154 39.081C112.006 38.7065 109.859 37.6297 109.859 35.1954C109.859 32.4333 112.388 31.0523 114.989 31.0523C117.28 31.0523 119.57 32.0588 120.238 34.3996L116.683 35.0315C116.54 34.6804 116.325 34.423 116.039 34.2123C115.729 34.025 115.395 33.9314 114.989 33.9314C114.345 33.9314 113.581 34.1655 113.581 34.9145C113.581 35.172 113.724 35.3827 113.987 35.5465C114.249 35.7104 114.75 35.8508 115.49 35.9678L116.063 36.0615C118.258 36.436 120.429 37.4659 120.429 39.9471C120.429 42.8261 117.781 44.2306 115.084 44.2306C112.722 44.2306 110.264 43.1773 109.525 40.7897Z" fill="#0C7769"/>
<path d="M14.7577 0.285891C12.2841 1.34806 10.523 4.08519 9.9449 7.77555C9.70292 9.25986 9.83735 12.2421 10.2003 13.6583C10.6843 15.4967 11.5581 17.1444 12.6739 18.2747C13.8704 19.5003 14.8114 19.9769 16.1827 20.0858C17.9438 20.222 19.557 19.4594 20.861 17.8662C24.3025 13.6719 24.0874 5.44694 20.4308 1.72935C19.194 0.490155 18.3202 0.0680106 16.7339 0.0135404C15.6853 -0.0273123 15.4164 0.0135404 14.7577 0.285891Z" fill="#0C7769"/>
<path d="M35.4203 0.435686C32.8123 1.11656 30.742 3.90816 30.0429 7.66661C29.7203 9.3688 29.8144 12.3783 30.2311 13.9852C31.1722 17.5802 33.2021 19.9224 35.8236 20.4126C40.1659 21.2161 43.8897 15.5239 43.2713 9.00113C42.747 3.34984 39.171 -0.558395 35.4203 0.435686Z" fill="#0C7769"/>
<path d="M1.89225 18.8466C2.24178 18.5334 2.72575 18.2066 2.98118 18.1249C4.6885 17.5666 6.38238 18.3972 7.30998 20.2356C8.13003 21.8697 8.34513 24.1438 7.8746 25.9686C7.08144 29.0462 4.60784 30.585 2.47032 29.3185C-0.541017 27.5346 -0.877104 21.3795 1.89225 18.8466Z" fill="#0C7769"/>
<path d="M49.3612 18.3019C48.2454 18.8602 47.4791 19.936 46.9683 21.6926C46.6322 22.8638 46.6591 25.0698 47.0355 26.2818C47.748 28.5559 49.4015 29.9585 51.1089 29.7542C53.2867 29.4819 54.8461 27.0035 54.8461 23.8306C54.8327 19.7181 52.0768 16.9265 49.3612 18.3019Z" fill="#0C7769"/>
<path d="M7.02767 33.2404C10.523 26.2001 18.132 20.9029 25.6603 20.2764C25.8484 20.2585 26.03 20.2414 26.196 20.2259C26.659 20.1824 27.0019 20.1503 27.0316 20.1403C27.0719 20.1403 27.8785 20.1947 28.8196 20.2628C33.7936 20.6714 38.23 22.8365 42.0076 26.7175C45.7852 30.5849 47.869 35.1604 48.0841 40.1036C48.2723 44.0799 47.1565 45.823 44.3602 45.9728C42.7336 46.0545 41.6312 45.7957 36.6302 44.1344C30.379 42.0645 28.2953 41.6015 25.2033 41.6151C22.1381 41.6288 20.1888 42.1054 14.7711 44.1616C10.4692 45.7957 9.77014 46 8.50645 46C6.34205 46 5.37412 44.72 5.15902 41.5743C4.98426 39.1368 5.72365 35.8958 7.02767 33.2404Z" fill="#0C7769"/>
</svg>
