<svg width="130" height="24" viewBox="0 0 130 24" fill="none" xmlns="http://www.w3.org/2000/svg">
<path d="M12 0L15.3997 7.32065L23.4127 8.2918L17.5009 13.7874L19.0534 21.7082L12 17.784L4.94658 21.7082L6.49909 13.7874L0.587322 8.2918L8.60025 7.32065L12 0Z" fill="#FFC703"/>
<path d="M38.5 0L41.8997 7.32065L49.9127 8.2918L44.0009 13.7874L45.5534 21.7082L38.5 17.784L31.4466 21.7082L32.9991 13.7874L27.0873 8.2918L35.1003 7.32065L38.5 0Z" fill="#FFC703"/>
<path d="M65 0L68.3997 7.32065L76.4127 8.2918L70.5009 13.7874L72.0534 21.7082L65 17.784L57.9466 21.7082L59.4991 13.7874L53.5873 8.2918L61.6003 7.32065L65 0Z" fill="#FFC703"/>
<path d="M91.5 0L94.8997 7.32065L102.913 8.2918L97.0009 13.7874L98.5534 21.7082L91.5 17.784L84.4466 21.7082L85.9991 13.7874L80.0873 8.2918L88.1003 7.32065L91.5 0Z" fill="#FFC703"/>
<path d="M118 0L121.4 7.32065L129.413 8.2918L123.501 13.7874L125.053 21.7082L118 17.784L110.947 21.7082L112.499 13.7874L106.587 8.2918L114.6 7.32065L118 0Z" fill="#FFC703"/>
</svg>
