<svg width="20" height="16" viewBox="0 0 20 16" fill="none" xmlns="http://www.w3.org/2000/svg">
<path fill-rule="evenodd" clip-rule="evenodd" d="M17.6417 2.55108C18.502 2.04525 19.1449 1.24934 19.45 0.312316C18.6583 0.778044 17.7833 1.11304 16.8417 1.2928C16.2811 0.69647 15.5493 0.280737 14.7428 0.100419C13.9364 -0.0798996 13.0931 -0.0163362 12.3243 0.282727C11.5554 0.581791 10.8971 1.10231 10.436 1.77565C9.97495 2.44899 9.73287 3.24352 9.74167 4.05448C9.74167 4.36497 9.78333 4.67545 9.85 4.9696C6.43333 4.80618 3.41667 3.20473 1.39167 0.753532C0.861124 1.64191 0.697621 2.69573 0.934734 3.69861C1.17185 4.70148 1.79158 5.57729 2.66667 6.14617C2.0148 6.12556 1.37751 5.95183 0.808333 5.63959V5.68861C0.808333 7.64957 2.225 9.27554 4.1 9.64322C3.49712 9.80572 2.86432 9.83087 2.25 9.71675C2.51074 10.5177 3.02055 11.2186 3.70798 11.7212C4.39541 12.2237 5.226 12.5028 6.08333 12.5193C5.23162 13.1769 4.25561 13.6627 3.21155 13.9487C2.16748 14.2348 1.076 14.3155 0 14.1861C1.87542 15.3719 4.06009 16.0018 6.29167 16C13.8333 16 17.9583 9.85565 17.9583 4.52021V3.99729C18.7597 3.42721 19.4511 2.72168 20 1.91377C19.2667 2.23242 18.475 2.44486 17.6417 2.54291V2.55108Z" fill="#0C7769"/>
</svg>
