<svg width="20" height="18" viewBox="0 0 20 18" fill="none" xmlns="http://www.w3.org/2000/svg">
<path d="M4.19727 2.00089C4.19699 2.53129 3.97562 3.03987 3.58185 3.41473C3.18809 3.7896 2.65418 4.00004 2.09759 3.99978C1.54099 3.99951 1.00731 3.78856 0.613934 3.41332C0.220561 3.03808 -0.000278034 2.52929 2.62709e-07 1.99889C0.000278559 1.46849 0.221651 0.959911 0.615418 0.585047C1.00919 0.210183 1.54309 -0.000264951 2.09969 2.50348e-07C2.65628 0.000265452 3.18996 0.211222 3.58334 0.586461C3.97671 0.961701 4.19755 1.47049 4.19727 2.00089ZM4.26023 5.4807H0.0629593V18H4.26023V5.4807ZM10.8919 5.4807H6.71564V18H10.8499V11.4304C10.8499 7.77057 15.8552 7.43059 15.8552 11.4304V18H20V10.0704C20 3.90078 12.5918 4.13077 10.8499 7.1606L10.8919 5.4807Z" fill="white" fill-opacity="0.75"/>
</svg>
