<svg width="200" height="200" viewBox="0 0 200 200" fill="none" xmlns="http://www.w3.org/2000/svg">
<circle cx="100" cy="100" r="100" fill="#0C7769"/>
<path opacity="0.1" d="M148.832 40.5264H64.2488V150.359H148.832V40.5264Z" fill="#272223"/>
<path d="M146.307 38H61.7239V147.832H146.307V38Z" fill="white"/>
<path d="M136.208 53.1504H70.5608C69.8636 53.1504 69.2983 53.7156 69.2983 54.4128C69.2983 55.1101 69.8636 55.6753 70.5608 55.6753H136.208C136.905 55.6753 137.47 55.1101 137.47 54.4128C137.47 53.7156 136.905 53.1504 136.208 53.1504Z" fill="#D6D6D6"/>
<path d="M127.371 59.4619H70.5608C69.8636 59.4619 69.2983 60.0271 69.2983 60.7244C69.2983 61.4216 69.8636 61.9868 70.5608 61.9868H127.371C128.068 61.9868 128.633 61.4216 128.633 60.7244C128.633 60.0271 128.068 59.4619 127.371 59.4619Z" fill="#D6D6D6"/>
<path d="M124.846 65.7754H71.8235C71.1262 65.7754 70.561 66.3406 70.561 67.0378C70.561 67.7351 71.1262 68.3003 71.8235 68.3003H124.846C125.543 68.3003 126.108 67.7351 126.108 67.0378C126.108 66.3406 125.543 65.7754 124.846 65.7754Z" fill="#D6D6D6"/>
<path d="M127.371 130.159H70.5608C69.8636 130.159 69.2983 130.724 69.2983 131.422C69.2983 132.119 69.8636 132.684 70.5608 132.684H127.371C128.068 132.684 128.633 132.119 128.633 131.422C128.633 130.724 128.068 130.159 127.371 130.159Z" fill="#D6D6D6"/>
<path d="M124.846 136.471H71.8235C71.1262 136.471 70.561 137.036 70.561 137.733C70.561 138.43 71.1262 138.996 71.8235 138.996H124.846C125.543 138.996 126.108 138.43 126.108 137.733C126.108 137.036 125.543 136.471 124.846 136.471Z" fill="#D6D6D6"/>
<path d="M136.208 75.873H70.5608C69.8636 75.873 69.2983 76.4383 69.2983 77.1355C69.2983 77.8327 69.8636 78.3979 70.5608 78.3979H136.208C136.905 78.3979 137.47 77.8327 137.47 77.1355C137.47 76.4383 136.905 75.873 136.208 75.873Z" fill="#D6D6D6"/>
<path d="M136.208 80.9229H70.5608C69.8636 80.9229 69.2983 81.4881 69.2983 82.1853C69.2983 82.8825 69.8636 83.4477 70.5608 83.4477H136.208C136.905 83.4477 137.47 82.8825 137.47 82.1853C137.47 81.4881 136.905 80.9229 136.208 80.9229Z" fill="#D6D6D6"/>
<path d="M132.421 87.2363H71.8235C71.1262 87.2363 70.561 87.8015 70.561 88.4988C70.561 89.196 71.1262 89.7612 71.8235 89.7612H132.421C133.118 89.7612 133.683 89.196 133.683 88.4988C133.683 87.8015 133.118 87.2363 132.421 87.2363Z" fill="#D6D6D6"/>
<path d="M134.945 93.5459H71.8235C71.1262 93.5459 70.561 94.1111 70.561 94.8083C70.561 95.5056 71.1262 96.0708 71.8235 96.0708H134.945C135.643 96.0708 136.208 95.5056 136.208 94.8083C136.208 94.1111 135.643 93.5459 134.945 93.5459Z" fill="#D6D6D6"/>
<path d="M140.009 115.069L139.981 114.948L140.009 115.069Z" fill="#2DBE96"/>
<path opacity="0.1" d="M86.7987 55.6729L102.122 113.075L56.8821 125.107L40.2625 68.4537L86.7987 55.6729Z" fill="#272223"/>
<path d="M85.5362 54.4111L100.859 111.813L55.6197 123.845L39 67.192L85.5362 54.4111Z" fill="white"/>
<path d="M42.7874 69.7176C43.2386 69.464 83.473 58.2002 83.473 58.2002L95.8098 102.401L55.0317 113.747L42.7874 69.7176Z" fill="#FFD339"/>
<path d="M89.7228 97.0506C89.2704 97.0971 88.8157 97.1192 88.3609 97.1166C87.6827 97.1166 86.8667 97.1441 85.9845 97.1166H85.2016C84.551 97.1166 83.8397 97.1166 83.1174 97.1166C81.9044 97.1166 80.6418 97.1771 79.5225 97.2156L78.122 93.0905C78.7025 92.3433 79.1382 91.4946 79.4067 90.588C79.4067 90.588 79.3792 89.2955 79.2303 87.596C80.1786 87.1615 80.7796 85.4345 80.6087 84.043C80.5765 83.4321 80.2909 82.8621 79.8202 82.4699C79.6742 82.3649 79.5147 82.2798 79.3461 82.2169C79.2854 82.0959 79.2303 81.9694 79.1586 81.8374C78.4363 80.5174 77.9566 77.6959 77.7306 76.1229C78.497 74.4289 76.7326 69.9793 74.2956 70.9638C72.8014 71.5688 73.0715 72.2508 72.3823 72.6578C72.5422 72.4708 73.0384 71.1453 72.1452 71.2278C71.252 71.3103 72.2941 71.9703 68.6275 73.0098C65.5564 73.8789 63.8527 74.8304 62.9043 75.6664C61.2502 76.7664 61.8016 77.9984 61.8016 77.9984C59.8884 78.3779 61.8016 83.3059 63.0256 85.9845C62.829 86.0783 62.644 86.1946 62.4743 86.331C61.9816 86.7269 61.7466 87.3606 61.8623 87.981C62.0938 89.697 64.1394 91.644 65.8927 90.885C66.2275 91.742 66.6256 92.5729 67.0837 93.371C67.4116 93.7138 67.7822 94.0132 68.1864 94.262C68.225 94.4105 68.5448 95.5711 69.019 97.0726L69.8185 99.7566C68.9859 100.158 68.021 100.637 67.2932 101.055C67.0947 101.165 66.9073 101.28 66.7418 101.379L64.9168 102.573L63.6707 103.398C61.5425 104.498 59.8112 105.515 59.4748 105.917C59.0282 106.467 58.4603 109.398 57.9365 112.484C67.6737 109.91 84.8211 105.185 94.5472 102.435C92.5954 99.4816 90.6601 96.9296 89.7228 97.0506Z" fill="#0C7769"/>
<path d="M112.618 126.008L110.299 124.194C109.607 123.632 109.495 122.616 110.048 121.916L117.116 113.09C117.676 112.395 118.688 112.283 119.385 112.838L121.721 114.657C122.413 115.217 122.523 116.233 121.966 116.929L114.898 125.761C114.629 126.1 114.237 126.317 113.809 126.363C113.38 126.409 112.951 126.281 112.618 126.008Z" fill="#CECECE"/>
<path d="M150.764 77.6554C139.896 68.92 124.003 70.649 115.267 81.5171C106.531 92.3852 108.259 108.277 119.128 117.013C129.996 125.749 145.889 124.021 154.625 113.154C163.36 102.284 161.631 86.393 150.764 77.6554ZM123.514 111.56C115.663 105.246 114.416 93.7639 120.729 85.9122C127.042 78.0605 138.525 76.812 146.378 83.1235C154.231 89.435 155.482 100.917 149.171 108.771C146.139 112.544 141.733 114.958 136.921 115.481C132.109 116.004 127.286 114.594 123.514 111.56Z" fill="#CECECE"/>
<path d="M113.373 119.885L116.881 122.705C118.038 123.634 118.222 125.325 117.292 126.482L90.9698 159.232C90.0403 160.389 88.3492 160.573 87.1927 159.643L83.6846 156.823C82.5281 155.894 82.3441 154.203 83.2736 153.046L109.596 120.296C110.526 119.14 112.217 118.956 113.373 119.885Z" fill="#0C7769" stroke="white" stroke-width="0.5"/>
</svg>
