<svg width="200" height="200" viewBox="0 0 200 200" fill="none" xmlns="http://www.w3.org/2000/svg">
<circle cx="100" cy="100" r="100" fill="#0C7769"/>
<path d="M46.3594 157.282C45.0545 157.276 44 156.216 44 154.911L44.29 51.1963C44.3206 48.4712 46.5402 46.279 49.2655 46.2822L123.841 46.4886C126.563 46.5069 128.765 48.7088 128.783 51.4306L128.493 155.145C128.484 156.448 127.426 157.499 126.123 157.499" fill="#FFD339"/>
<path d="M122.235 52.582H50.2417V151.701H122.235V52.582Z" fill="white"/>
<path d="M112.228 63.0488H58.6419C57.7208 63.0488 56.9741 63.7955 56.9741 64.7166C56.9741 65.6377 57.7208 66.3844 58.6419 66.3844H112.228C113.149 66.3844 113.896 65.6377 113.896 64.7166C113.896 63.7955 113.149 63.0488 112.228 63.0488Z" fill="#D6D6D6"/>
<path d="M101.954 70.5576H58.6419C57.7208 70.5576 56.9741 71.3043 56.9741 72.2254C56.9741 73.1465 57.7208 73.8932 58.6419 73.8932H101.954C102.875 73.8932 103.622 73.1465 103.622 72.2254C103.622 71.3043 102.875 70.5576 101.954 70.5576Z" fill="#D6D6D6"/>
<path d="M98.5292 78.0693H58.6419C57.7208 78.0693 56.9741 78.816 56.9741 79.7371C56.9741 80.6582 57.7208 81.4049 58.6419 81.4049H98.5292C99.4503 81.4049 100.197 80.6582 100.197 79.7371C100.197 78.816 99.4503 78.0693 98.5292 78.0693Z" fill="#D6D6D6"/>
<path d="M112.228 90.3711H58.6419C57.7208 90.3711 56.9741 91.1178 56.9741 92.0389C56.9741 92.96 57.7208 93.7067 58.6419 93.7067H112.228C113.149 93.7067 113.896 92.96 113.896 92.0389C113.896 91.1178 113.149 90.3711 112.228 90.3711Z" fill="#D6D6D6"/>
<path d="M112.228 97.8838H58.6419C57.7208 97.8838 56.9741 98.6305 56.9741 99.5516C56.9741 100.473 57.7208 101.219 58.6419 101.219H112.228C113.149 101.219 113.896 100.473 113.896 99.5516C113.896 98.6305 113.149 97.8838 112.228 97.8838Z" fill="#D6D6D6"/>
<path d="M107.102 105.392H58.6419C57.7208 105.392 56.9741 106.138 56.9741 107.059C56.9741 107.98 57.7208 108.727 58.6419 108.727H107.102C108.023 108.727 108.77 107.98 108.77 107.059C108.77 106.138 108.023 105.392 107.102 105.392Z" fill="#D6D6D6"/>
<path d="M110.176 112.904H58.6419C57.7208 112.904 56.9741 113.651 56.9741 114.572C56.9741 115.493 57.7208 116.24 58.6419 116.24H110.176C111.097 116.24 111.844 115.493 111.844 114.572C111.844 113.651 111.097 112.904 110.176 112.904Z" fill="#D6D6D6"/>
<path d="M77.9301 138.58H58.6419C57.7208 138.58 56.9741 139.327 56.9741 140.248C56.9741 141.169 57.7208 141.916 58.6419 141.916H77.9301C78.8512 141.916 79.5979 141.169 79.5979 140.248C79.5979 139.327 78.8512 138.58 77.9301 138.58Z" fill="#D6D6D6"/>
<path fill-rule="evenodd" clip-rule="evenodd" d="M87.708 34.8506C85.5516 34.8506 83.8035 36.5987 83.8035 38.7551C83.8035 38.8369 83.806 38.9182 83.8109 38.9988C83.488 39.7726 82.9067 40.7765 81.9294 41.3585C81.7197 41.4864 81.4594 41.6199 81.1819 41.7623C80.2493 42.2407 79.1213 42.8193 79.0568 43.6231C79.0343 43.8705 79.0421 45.4679 79.0496 47.0156C79.0532 47.7711 79.0568 48.5149 79.0568 49.0839L76.7 49.1013C73.3186 49.1263 70.8985 49.1442 70.5785 49.1396C69.396 49.1396 68.1688 49.954 67.1202 50.7238C66.0716 51.4935 65.6198 53.0776 65.4803 53.5796C65.3409 54.0816 65.4301 54.4386 65.9767 54.4442L109.763 54.5669C109.92 54.5106 110.049 54.397 110.125 54.249C110.243 54.0203 110.566 52.1573 108.028 50.5174C105.712 49.0207 104.562 48.9969 103.276 48.9702C103.153 48.9676 103.029 48.9651 102.902 48.9612H96.2087C96.2366 47.2878 96.2757 44.4989 96.2534 43.9411C96.2289 43.1434 95.6075 42.8439 94.8146 42.4616C94.3433 42.2344 93.8114 41.978 93.3083 41.5705C92.1313 40.6111 91.5456 37.9728 91.5456 37.9728L91.5365 37.985C91.1789 36.1974 89.6007 34.8506 87.708 34.8506ZM88.065 40.7073C87.2187 40.8747 86.3627 40.4684 85.9572 39.7071C85.5517 38.9457 85.6922 38.0086 86.3033 37.3998C86.9144 36.7909 87.8519 36.6538 88.6118 37.062C89.3717 37.4703 89.7748 38.3278 89.6044 39.1734C89.4482 39.9487 88.8408 40.5539 88.065 40.7073Z" fill="#141414"/>
<path d="M153.875 102.24C136.243 102.24 122.091 92.0691 121.951 91.9687L121.182 91.4023L120.414 91.9687C120.273 92.0691 106.135 102.24 88.4888 102.24H87.1821V116.718C87.1821 153.058 118.429 165.402 121.182 165.402C123.936 165.402 155.182 153.071 155.182 116.718V102.24H153.875Z" fill="#3EC2B1"/>
<path d="M130.558 133.639C129.503 133.2 128.407 132.745 127.55 131.686C126.615 130.544 126.251 129.299 125.895 128.087C125.287 126.018 124.704 124.086 121.411 124.086H121.113C117.803 124.086 117.24 126.03 116.628 128.087C116.26 129.299 115.892 130.544 114.973 131.686C114.117 132.745 113.021 133.2 111.97 133.639C110.24 134.346 108.437 135.091 108.437 138.438C108.437 140.755 109.115 143.216 114.133 143.336C115.475 143.449 116.809 143.04 117.857 142.194C118.593 141.681 119.297 141.189 121.295 141.189C123.293 141.189 123.98 141.681 124.72 142.194C125.698 142.989 126.933 143.397 128.192 143.34H128.436C133.454 143.22 134.128 140.759 134.128 138.442C134.075 135.091 132.283 134.346 130.558 133.639Z" fill="white"/>
<path d="M117.637 122.926C119.59 122.384 120.633 119.839 119.958 117.233C119.284 114.627 117.145 112.955 115.205 113.51C113.264 114.064 112.209 116.596 112.88 119.202C113.55 121.809 115.685 123.472 117.637 122.926Z" fill="white"/>
<path d="M124.832 122.925C126.785 123.479 128.92 121.799 129.594 119.201C130.268 116.603 129.226 114.05 127.261 113.508C125.295 112.966 123.19 114.634 122.515 117.232C121.841 119.83 122.875 122.374 124.832 122.925Z" fill="white"/>
<path d="M111.225 129.338C113.174 128.796 114.22 126.251 113.538 123.641C112.855 121.03 110.737 119.371 108.784 119.917C106.831 120.464 105.789 123.012 106.459 125.61C107.129 128.208 109.272 129.88 111.225 129.338Z" fill="white"/>
<path d="M133.69 119.913C131.741 119.371 129.602 121.034 128.928 123.636C128.254 126.239 129.3 128.791 131.253 129.333C133.206 129.875 135.332 128.216 136.011 125.61C136.689 123.003 135.647 120.442 133.69 119.913Z" fill="white"/>
</svg>
