<svg width="200" height="200" viewBox="0 0 200 200" fill="none" xmlns="http://www.w3.org/2000/svg">
<circle cx="100" cy="100" r="100" fill="#0C7769"/>
<mask id="mask0_1_2760" style="mask-type:alpha" maskUnits="userSpaceOnUse" x="0" y="0" width="200" height="200">
<circle cx="100" cy="100" r="100" fill="#0C7769"/>
</mask>
<g mask="url(#mask0_1_2760)">
<path d="M94.5503 74.0164C92.2361 67.2201 94.006 45.8489 95.1801 36.0127C92.1307 36.9678 84.7985 40.0644 79.8661 44.8098C85.6917 59.3881 71.1048 63.297 85.4756 90.0542C90.1485 98.7546 66.7453 103.165 82.1255 128.117C90.6612 141.964 120.163 102.801 120.413 87.72C120.663 72.6393 97.443 82.5122 94.5503 74.0164Z" fill="#141414"/>
<path d="M93.5225 112.096C107.071 100.183 117.485 94.3798 111.02 81.6556C112.068 79.4591 121.307 68.8436 135.113 56.0312C132.39 73.8576 143.022 103.72 150.523 114.914C136.452 121.724 111.02 156.146 93.5225 112.096Z" fill="#FFE2C8"/>
<path d="M110.835 81.7473C111.873 79.5425 121.021 68.8865 134.691 56.0244C133.641 64.8945 127.76 84.2682 112.634 90.8043C113.068 88.1184 112.557 85.1842 110.835 81.7473Z" fill="#E89B72"/>
<path d="M42.9316 132.406C43.788 137.972 50.2317 165.764 52.2832 178.964C55.4942 181.551 68.0837 191.679 75.5757 197.886C65.4079 213.405 54.1829 227.052 42.9316 212.87C31.6806 198.689 31.68 133.744 29.5395 132.406C18.8365 128.66 16.9636 117.957 14.0202 115.014C11.0769 112.071 7.5985 106.452 8.93638 105.649C4.38747 103.509 5.19038 102.706 8.93638 102.706C12.6824 102.706 36.7639 116.233 35.1584 112.338C33.0315 107.179 34.6234 100.833 36.7639 102.706C38.9047 104.579 38.383 111.693 39.4396 112.338C44.2559 115.282 41.8614 125.45 42.9316 132.406Z" fill="#FFE2C8"/>
<path d="M104.133 83.1138C91.2633 80.3178 85.1497 64.1081 85.5193 41.8059C106.382 19.5872 139.82 40.2942 134.707 57.6944C129.136 76.6559 117.002 85.9098 104.133 83.1138Z" fill="#FFE2C8"/>
<path d="M51.7479 179.5C54.7448 161.091 61.9292 127.515 70.7455 117.155C104.353 117.155 91.616 159.967 78.2375 202.779C72.9753 197.784 57.5275 184.423 51.7479 179.5Z" fill="#3EC2B1"/>
<path d="M83.0676 120.002C100.445 130.239 89.5719 166.509 78.2374 202.78C75.8228 200.488 71.2637 196.434 66.4781 192.243C78.2374 162.3 53.0993 155.343 83.0676 120.002Z" fill="#1C9585"/>
<path d="M179.394 121.36C165.051 112.37 149.425 109.052 145.679 109.587C118.494 145.121 103.492 122.966 99.389 107.446C92.5213 108.16 77.02 111.246 69.956 117.882C65.4071 171.932 75.0399 171.129 75.0399 183.437C75.0399 198.903 69.3317 233.384 66.745 245.514C130.017 262.623 177.52 245.514 177.52 245.514C174.131 235.168 164.623 205.218 164.409 193.873C164.142 179.691 176.985 166.312 179.394 121.36Z" fill="#3EC2B1"/>
<path d="M112.358 183.439C112.786 201.432 117.174 237.345 119.314 253.052C118.257 253.024 117.186 252.988 116.104 252.942C112.893 232.555 109.147 193.874 109.147 183.439C109.147 175.091 111.287 142.307 112.358 126.959C113.531 127.583 114.78 128.055 116.104 128.341C114.677 139.21 111.929 165.446 112.358 183.439Z" fill="#1C9585"/>
<path d="M191.167 205.112C191.168 134.74 185.816 122.381 174.845 119.22C162.216 115.581 154.599 171.486 151.031 194.409C160.396 197.887 191.167 205.112 191.167 205.112Z" fill="#45D2C0"/>
<path d="M106.996 52.5298C98.6173 47.5389 95.4653 43.2413 95.7369 39.0005C89.4348 54.6022 76.213 50.1377 76.2621 47.1684C76.3425 42.3179 98.2542 -3.47361 126.823 23.0787C164.284 23.6996 141.607 47.8671 159.14 78.804C166.98 92.6368 176.35 107.107 168.959 115.475C161.297 113.528 149.63 134.521 154.902 152.118C152.922 150.063 143.683 128.948 138.366 128.86C141.798 126.005 145.603 117.659 147.076 113.842C144.619 116.227 141.199 128.797 133.41 132.064C115.749 112.531 138.366 87.9145 133.41 63.2776C120.711 63.6735 109.342 56.8138 107.217 39.1908C102.877 45.79 107.116 45.2538 106.996 52.5298Z" fill="#141414"/>
<path fill-rule="evenodd" clip-rule="evenodd" d="M120.468 85.7669C124.743 83.6159 128.108 80.5424 129.834 77.5526L128.784 76.9463C127.201 79.6879 124.037 82.614 119.923 84.6834C115.818 86.7484 110.815 87.9367 105.578 87.2624L105.424 88.4652C110.938 89.1754 116.184 87.9222 120.468 85.7669Z" fill="#FFD339"/>
<path d="M126.401 77.5737C126.746 76.2886 128.66 70.8055 129.573 68.2246L134.968 67.6191C133.693 71.0524 130.868 78.2557 129.765 79.6026C128.386 81.2857 125.97 79.1801 126.401 77.5737Z" fill="#3EC2B1"/>
<path d="M127.153 52.1406C121.583 22.5671 96.7675 23.9699 86.092 28.021C104.202 13.2086 128.817 23.8964 133.146 53.5258C131.609 52.8903 129.574 54.8581 127.153 52.1406Z" fill="#3EC2B1"/>
<path d="M134.482 71.3801C128.484 72.5711 122.677 68.776 121.51 62.9034C120.344 57.0309 124.261 51.3047 130.258 50.1136C136.256 48.9226 142.063 52.7177 143.229 58.5902C144.396 64.4628 140.479 70.189 134.482 71.3801Z" fill="#F0C11A"/>
<path d="M135.386 71.2003C129.889 72.2921 124.487 68.4166 123.32 62.544C122.154 56.6714 125.665 51.0257 131.163 49.9339C136.661 48.8421 142.063 52.7177 143.229 58.5903C144.396 64.4628 140.884 70.1085 135.386 71.2003Z" fill="#FFD339"/>
<path d="M100.71 83.8763L105.287 83.9388C106.815 83.9596 108.037 85.2157 108.016 86.7442L108.016 86.7442C107.996 88.2727 106.74 89.4949 105.211 89.474L100.635 89.4115C99.1062 89.3907 97.884 88.1346 97.9048 86.6061C97.9257 85.0776 99.1817 83.8554 100.71 83.8763Z" fill="#F0C11A"/>
<path d="M99.9994 85.2519L104.151 85.3086C105.297 85.3242 106.214 86.2662 106.198 87.4126C106.183 88.559 105.241 89.4757 104.094 89.46L99.9427 89.4033C98.7963 89.3877 97.8797 88.4456 97.8953 87.2993C97.911 86.1529 98.853 85.2362 99.9994 85.2519Z" fill="#FFD339"/>
<path d="M155.989 67.3121C154.063 64.7436 148.051 58.2149 145.286 55.2715C143.413 55.2715 144.216 56.3417 143.414 58.4822C140.738 55.2715 139.132 59.5528 139.668 60.8903C140.203 62.2282 146.089 69.4529 147.16 70.2555C148.016 70.8977 146.803 75.6963 146.089 78.0151C146.089 77.2125 145.714 74.9648 144.216 72.3963C135.654 60.8903 134.048 66.2418 135.119 68.65C136.189 71.0584 139.935 73.7339 140.47 75.607C141.273 81.2262 139.4 86.31 134.048 92.1965C128.697 98.0833 130.837 107.181 132.711 117.616C134.583 128.051 150.496 202.841 160.664 213.407C174.31 227.589 193.843 209.394 191.969 195.212C190.096 181.031 149.3 120.827 147.962 115.208C146.624 109.589 147.962 99.4212 150.906 92.1965C153.849 84.9722 158.398 70.5231 155.989 67.3121Z" fill="#FFE2C8"/>
<path d="M143.681 58.2139C146 61.0679 150.852 67.0437 151.708 68.114C152.565 69.1842 152.065 75.517 151.708 78.5494" stroke="#E89B72"/>
<path d="M8.93589 105.918C10.9348 106.549 14.1876 108.167 16.6955 110.838M16.6955 110.838C18.4392 112.695 19.8228 115.062 20.1739 117.959M16.6955 110.838C19.0143 111.606 24.0268 113.624 25.5254 115.55" stroke="#E89B72"/>
</g>
</svg>
